; Drill file
; Format: 3.2 (000.00)
M48
METRIC
T01C0.3
T02C0.4
T03C0.5
T04C0.7
T05C0.8
T06C0.9
T07C1.0
T08C1.2
T09C1.3
T10C1.7
T11C2.7
T12C3.3
%
G05
G90
T01
X04634Y06038
X04642Y07499
X04386Y07626
X03909Y08758
X03912Y08907
X03910Y09053
X03909Y09201
X03231Y08904
X02955Y08904
X05958Y07743
X06366Y07747
X06587Y07621
X06636Y07838
X06636Y08058
X07181Y07799
X07435Y07956
X07304Y07339
X06934Y07142
X06589Y07366
X06674Y08972
T02
X07656Y07956
T03
X08890Y06477
T04
X02355Y08890
X02609Y08890
X05062Y09420
X06078Y09420
X07675Y08890
X08183Y08890
T05
X02540Y06985
X02540Y07239
X02540Y07493
X02950Y07496
X02950Y07242
X02950Y06988
X02950Y07750
X06097Y05999
X06351Y05999
X06605Y05999
X06605Y05237
X06351Y05237
X06097Y05237
T06
X00839Y06985
X00839Y07239
X00839Y07493
X00839Y07747
X00839Y08001
X03370Y08255
X03624Y08255
X03878Y08255
X04132Y08255
X04386Y08255
X04640Y08255
X04894Y08255
X05148Y08255
X05402Y08256
X05656Y08256
X05910Y08255
X06164Y08255
X06418Y08255
X06672Y08255
X06926Y08255
X05530Y08636
X05276Y08636
X05022Y08636
X04768Y08636
X04894Y06731
X05148Y06731
X05402Y06731
X05656Y06731
X05910Y06732
X06164Y06732
X06418Y06731
X06672Y06731
X06926Y06731
X04640Y06731
X04386Y06731
X04132Y06731
X03878Y06731
X03624Y06731
X03370Y06731
T07
X04961Y05051
X04961Y05305
X04961Y05559
T08
X01781Y04933
X01781Y05441
X01781Y05949
X01847Y08890
X01339Y08890
X07943Y05842
X08451Y05842
T09
X02589Y04949
X02589Y05949
X03605Y05949
X03859Y05449
X03605Y04949
T10
X07872Y07235
X08197Y07079
X08521Y07235
X08601Y07585
X08378Y07867
X07792Y07586
T11
X08016Y07867
X08197Y07494
T12
X00450Y04450
X00450Y09550
X09100Y09550
X09100Y04450
M30
