%FSLAX34Y34*%
%MOMM*%
%LNSOLDERMASK_TOP*%
G71*
G01*
%ADD10C, 2.60*%
%ADD11C, 3.30*%
%ADD12R, 1.47X0.85*%
%ADD13C, 2.90*%
%ADD14R, 1.60X0.90*%
%ADD15R, 1.80X1.07*%
%ADD16C, 2.60*%
%ADD17C, 2.60*%
%ADD18C, 3.10*%
%ADD19R, 2.10X1.20*%
%ADD20C, 2.40*%
%ADD21R, 1.80X5.90*%
%ADD22R, 5.30X5.20*%
%ADD23R, 1.07X1.80*%
%ADD24C, 6.10*%
%ADD25C, 2.50*%
%ADD26C, 2.60*%
%LPD*%
X692630Y825547D02*
G54D10*
D03*
X641830Y825547D02*
G54D10*
D03*
X616429Y825545D02*
G54D10*
D03*
X591030Y825547D02*
G54D10*
D03*
X565630Y825550D02*
G54D10*
D03*
X514829Y825545D02*
G54D10*
D03*
X489430Y825547D02*
G54D10*
D03*
X464030Y825547D02*
G54D10*
D03*
X692630Y673147D02*
G54D10*
D03*
X667230Y673147D02*
G54D10*
D03*
X641830Y673147D02*
G54D10*
D03*
X565630Y673147D02*
G54D10*
D03*
X540230Y673147D02*
G54D10*
D03*
X514830Y673147D02*
G54D10*
D03*
X489430Y673147D02*
G54D10*
D03*
X464030Y673147D02*
G54D10*
D03*
X438630Y825547D02*
G54D10*
D03*
X413230Y825547D02*
G54D10*
D03*
X387830Y825547D02*
G54D10*
D03*
X362430Y825547D02*
G54D10*
D03*
X337030Y825547D02*
G54D10*
D03*
X438630Y673147D02*
G54D10*
D03*
X413230Y673147D02*
G54D10*
D03*
X387830Y673147D02*
G54D10*
D03*
X362430Y673147D02*
G54D10*
D03*
X337030Y673147D02*
G54D10*
D03*
X83900Y800100D02*
G54D10*
D03*
X83900Y774700D02*
G54D10*
D03*
X83900Y749300D02*
G54D10*
D03*
X83900Y723900D02*
G54D10*
D03*
X83900Y698500D02*
G54D10*
D03*
X476800Y863600D02*
G54D10*
D03*
X502200Y863600D02*
G54D10*
D03*
X527600Y863600D02*
G54D10*
D03*
X553000Y863600D02*
G54D10*
D03*
X819674Y707852D02*
G54D11*
D03*
X787244Y723452D02*
G54D11*
D03*
X852099Y723453D02*
G54D11*
D03*
X779204Y758552D02*
G54D11*
D03*
X860144Y758539D02*
G54D11*
D03*
X837774Y786702D02*
G54D11*
D03*
X641846Y762131D02*
G54D12*
D03*
X641846Y749431D02*
G54D12*
D03*
X641846Y736731D02*
G54D12*
D03*
X641846Y724031D02*
G54D12*
D03*
X591046Y724031D02*
G54D12*
D03*
X591046Y736731D02*
G54D12*
D03*
X591046Y749431D02*
G54D12*
D03*
X591046Y762131D02*
G54D12*
D03*
X258858Y594858D02*
G54D13*
D03*
X258858Y494858D02*
G54D13*
D03*
X360458Y494858D02*
G54D13*
D03*
X360458Y594858D02*
G54D13*
D03*
X385858Y544858D02*
G54D13*
D03*
X442444Y593854D02*
G54D14*
D03*
X442444Y612854D02*
G54D14*
D03*
X421444Y603354D02*
G54D14*
D03*
X463562Y588134D02*
G54D15*
D03*
X463562Y618534D02*
G54D15*
D03*
X488962Y588134D02*
G54D15*
D03*
X488962Y618534D02*
G54D15*
D03*
X660509Y599915D02*
G54D16*
D03*
X635110Y599910D02*
G54D16*
D03*
X609709Y599915D02*
G54D16*
D03*
X660509Y523715D02*
G54D16*
D03*
X635109Y523715D02*
G54D16*
D03*
X609709Y523715D02*
G54D16*
D03*
G36*
X625129Y642043D02*
X635829Y642043D01*
X635829Y624043D01*
X625129Y624043D01*
X625129Y642043D01*
G37*
G36*
X655529Y642043D02*
X666229Y642043D01*
X666229Y624043D01*
X655529Y624043D01*
X655529Y642043D01*
G37*
X496147Y555872D02*
G54D17*
D03*
X496118Y530518D02*
G54D17*
D03*
X496147Y505072D02*
G54D17*
D03*
X527036Y540837D02*
G54D15*
D03*
X527036Y571237D02*
G54D15*
D03*
X551408Y555768D02*
G54D15*
D03*
X551408Y525369D02*
G54D15*
D03*
X178139Y594858D02*
G54D18*
D03*
X178139Y544058D02*
G54D18*
D03*
X178139Y493258D02*
G54D18*
D03*
X794293Y584249D02*
G54D18*
D03*
X845092Y584250D02*
G54D18*
D03*
X678678Y764555D02*
G54D15*
D03*
X678678Y734155D02*
G54D15*
D03*
X688313Y907069D02*
G54D14*
D03*
X688313Y888069D02*
G54D14*
D03*
X709313Y897569D02*
G54D14*
D03*
X667195Y912789D02*
G54D15*
D03*
X667195Y882389D02*
G54D15*
D03*
X641795Y912789D02*
G54D15*
D03*
X641795Y882389D02*
G54D15*
D03*
X349756Y920692D02*
G54D19*
D03*
X349856Y875092D02*
G54D19*
D03*
X295497Y905930D02*
G54D15*
D03*
X295497Y875530D02*
G54D15*
D03*
X323032Y905943D02*
G54D15*
D03*
X323032Y875543D02*
G54D15*
D03*
X235486Y888974D02*
G54D20*
D03*
X260886Y888974D02*
G54D20*
D03*
X441790Y897795D02*
G54D21*
D03*
X420289Y897830D02*
G54D22*
D03*
X133890Y889050D02*
G54D18*
D03*
X184692Y889050D02*
G54D18*
D03*
X711854Y714273D02*
G54D23*
D03*
X681455Y714273D02*
G54D23*
D03*
X45000Y955000D02*
G54D24*
D03*
X910000Y955000D02*
G54D24*
D03*
X910000Y445000D02*
G54D24*
D03*
X45000Y445000D02*
G54D24*
D03*
X707245Y764966D02*
G54D15*
D03*
X707245Y734566D02*
G54D15*
D03*
X295000Y698800D02*
G54D25*
D03*
X295000Y724200D02*
G54D25*
D03*
X295000Y749600D02*
G54D25*
D03*
X295000Y775000D02*
G54D25*
D03*
X254000Y749300D02*
G54D16*
D03*
X254000Y723900D02*
G54D16*
D03*
X254000Y698500D02*
G54D16*
D03*
G36*
X325606Y629497D02*
X336306Y629498D01*
X336306Y611498D01*
X325606Y611497D01*
X325606Y629497D01*
G37*
G36*
X356005Y629498D02*
X366705Y629498D01*
X366706Y611498D01*
X356006Y611498D01*
X356005Y629498D01*
G37*
X758547Y758215D02*
G54D15*
D03*
X758547Y727816D02*
G54D15*
D03*
X506200Y942000D02*
G54D26*
D03*
X607800Y942000D02*
G54D26*
D03*
X669342Y864231D02*
G54D23*
D03*
X638942Y864231D02*
G54D23*
D03*
X767517Y889000D02*
G54D26*
D03*
X818317Y889000D02*
G54D26*
D03*
M02*
