%FSLAX34Y34*%
%MOMM*%
%LNCOPPER_BOTTOM*%
G71*
G01*
%ADD10C, 2.80*%
%ADD11C, 1.70*%
%ADD12C, 3.50*%
%ADD13C, 3.50*%
%ADD14C, 3.10*%
%ADD15C, 1.50*%
%ADD16C, 2.80*%
%ADD17C, 2.80*%
%ADD18C, 3.30*%
%ADD19C, 1.40*%
%ADD20C, 2.60*%
%ADD21C, 1.80*%
%ADD22C, 1.80*%
%ADD23C, 0.00*%
%ADD24C, 11.50*%
%ADD25C, 6.30*%
%ADD26C, 2.70*%
%ADD27C, 1.80*%
%ADD28C, 2.00*%
%ADD29C, 2.80*%
%ADD30C, 2.80*%
%ADD31C, 1.05*%
%ADD32C, 0.70*%
%ADD33C, 1.19*%
%ADD34C, 1.78*%
%ADD35C, 2.00*%
%ADD36C, 2.70*%
%ADD37C, 2.30*%
%ADD38C, 0.70*%
%ADD39C, 2.00*%
%ADD40C, 2.00*%
%ADD41C, 2.50*%
%ADD42C, 0.60*%
%ADD43C, 1.80*%
%ADD44C, 1.00*%
%ADD45C, 1.00*%
%ADD46C, 5.50*%
%ADD47C, 1.90*%
%ADD48C, 1.00*%
%ADD49C, 1.20*%
%ADD50C, 2.00*%
%LPD*%
G36*
X0Y1000000D02*
X955000Y1000000D01*
X955000Y401000D01*
X0Y401000D01*
X0Y1000000D01*
G37*
%LPC*%
X692630Y825547D02*
G54D10*
D03*
X667230Y825540D02*
G54D11*
D03*
X641830Y825547D02*
G54D10*
D03*
X616429Y825545D02*
G54D10*
D03*
X591030Y825547D02*
G54D10*
D03*
X565630Y825550D02*
G54D10*
D03*
X540230Y825550D02*
G54D11*
D03*
X514829Y825545D02*
G54D10*
D03*
X489430Y825547D02*
G54D10*
D03*
X464030Y825547D02*
G54D10*
D03*
X692630Y673147D02*
G54D10*
D03*
X667230Y673147D02*
G54D10*
D03*
X641830Y673147D02*
G54D10*
D03*
X616430Y673150D02*
G54D11*
D03*
X591030Y673150D02*
G54D11*
D03*
X565630Y673147D02*
G54D10*
D03*
X540230Y673147D02*
G54D10*
D03*
X514830Y673147D02*
G54D10*
D03*
X489430Y673147D02*
G54D10*
D03*
X464030Y673147D02*
G54D10*
D03*
X438630Y825547D02*
G54D10*
D03*
X413230Y825547D02*
G54D10*
D03*
X387830Y825547D02*
G54D10*
D03*
X362430Y825547D02*
G54D10*
D03*
X337030Y825547D02*
G54D10*
D03*
X438630Y673147D02*
G54D10*
D03*
X413230Y673147D02*
G54D10*
D03*
X387830Y673147D02*
G54D10*
D03*
X362430Y673147D02*
G54D10*
D03*
X337030Y673147D02*
G54D10*
D03*
X83900Y800100D02*
G54D10*
D03*
X83900Y774700D02*
G54D10*
D03*
X83900Y749300D02*
G54D10*
D03*
X83900Y723900D02*
G54D10*
D03*
X83900Y698500D02*
G54D10*
D03*
X476800Y863600D02*
G54D10*
D03*
X502200Y863600D02*
G54D10*
D03*
X527600Y863600D02*
G54D10*
D03*
X553000Y863600D02*
G54D10*
D03*
X819674Y707852D02*
G54D12*
D03*
X787244Y723452D02*
G54D12*
D03*
X852099Y723453D02*
G54D12*
D03*
X779204Y758552D02*
G54D12*
D03*
X860144Y758539D02*
G54D12*
D03*
X837774Y786702D02*
G54D12*
D03*
X801570Y786700D02*
G54D13*
D03*
X819670Y749350D02*
G54D13*
D03*
X258858Y594858D02*
G54D14*
D03*
X258858Y494858D02*
G54D14*
D03*
X360458Y494858D02*
G54D14*
D03*
X360458Y594858D02*
G54D14*
D03*
X385858Y544858D02*
G54D14*
D03*
X463399Y603773D02*
G54D15*
D03*
X660509Y599915D02*
G54D16*
D03*
X635110Y599910D02*
G54D16*
D03*
X609709Y599915D02*
G54D16*
D03*
X660509Y523715D02*
G54D16*
D03*
X635109Y523715D02*
G54D16*
D03*
X609709Y523715D02*
G54D16*
D03*
X496147Y555872D02*
G54D17*
D03*
X496118Y530518D02*
G54D17*
D03*
X496147Y505072D02*
G54D17*
D03*
X178139Y594858D02*
G54D18*
D03*
X178139Y544058D02*
G54D18*
D03*
X178139Y493258D02*
G54D18*
D03*
X794293Y584249D02*
G54D18*
D03*
X845092Y584250D02*
G54D18*
D03*
X658852Y736643D02*
G54D15*
D03*
X658733Y762119D02*
G54D15*
D03*
X718061Y779856D02*
G54D15*
D03*
X636645Y774701D02*
G54D15*
D03*
X595752Y774298D02*
G54D15*
D03*
G54D19*
X595752Y774298D02*
X636645Y774701D01*
G54D19*
X502200Y863600D02*
X489430Y825547D01*
X663623Y783777D02*
G54D15*
D03*
X663623Y805755D02*
G54D15*
D03*
G54D19*
X663623Y783777D02*
X663623Y805755D01*
X667359Y897150D02*
G54D15*
D03*
X743495Y795571D02*
G54D15*
D03*
G54D19*
X743495Y795571D02*
X743449Y825397D01*
X767360Y849264D01*
X767517Y889000D01*
X235486Y888974D02*
G54D20*
D03*
X260886Y888974D02*
G54D20*
D03*
X295460Y890393D02*
G54D15*
D03*
X323079Y890393D02*
G54D15*
D03*
X390936Y920077D02*
G54D15*
D03*
X391042Y905341D02*
G54D15*
D03*
X391167Y890652D02*
G54D15*
D03*
X390936Y875786D02*
G54D15*
D03*
X133890Y889050D02*
G54D18*
D03*
X184692Y889050D02*
G54D18*
D03*
X730400Y733901D02*
G54D15*
D03*
G54D19*
X730400Y733901D02*
X730000Y780000D01*
X718061Y779856D01*
X693444Y714196D02*
G54D15*
D03*
G54D19*
X693444Y714196D02*
X693444Y761256D01*
X692700Y762000D01*
X658852Y762000D01*
X658733Y762119D01*
G54D19*
X133890Y889050D02*
X133900Y850900D01*
X235282Y749356D01*
X254000Y749300D01*
X295000Y724200D01*
X765601Y795576D02*
G54D21*
D03*
G54D22*
X818317Y889000D02*
X818317Y868300D01*
X765319Y815678D01*
X765601Y795576D01*
G36*
X0Y1000000D02*
X20000Y1000000D01*
X20000Y400000D01*
X0Y400000D01*
X0Y1000000D01*
G37*
G54D23*
X0Y1000000D02*
X20000Y1000000D01*
X20000Y400000D01*
X0Y400000D01*
X0Y1000000D01*
G36*
X955000Y979950D02*
X955000Y999950D01*
X20000Y999950D01*
X20000Y979950D01*
X955000Y979950D01*
G37*
G54D23*
X955000Y979950D02*
X955000Y999950D01*
X20000Y999950D01*
X20000Y979950D01*
X955000Y979950D01*
G36*
X935000Y1000000D02*
X955000Y1000000D01*
X955000Y400000D01*
X935000Y400000D01*
X935000Y1000000D01*
G37*
G54D23*
X935000Y1000000D02*
X955000Y1000000D01*
X955000Y400000D01*
X935000Y400000D01*
X935000Y1000000D01*
G36*
X435000Y632700D02*
X435000Y400000D01*
X20000Y400000D01*
X20000Y632700D01*
X435000Y632700D01*
G37*
G54D23*
X435000Y632700D02*
X435000Y400000D01*
X20000Y400000D01*
X20000Y632700D01*
X435000Y632700D01*
G36*
X484693Y633566D02*
X625132Y633323D01*
X625000Y400000D01*
X484069Y400000D01*
X484393Y633583D01*
X484693Y633566D01*
G37*
G54D23*
X484693Y633566D02*
X625132Y633323D01*
X625000Y400000D01*
X484069Y400000D01*
X484393Y633583D01*
X484693Y633566D01*
G36*
X435000Y590000D02*
X484069Y590000D01*
X484069Y400000D01*
X435000Y400000D01*
X435000Y590000D01*
G37*
G54D23*
X435000Y590000D02*
X484069Y590000D01*
X484069Y400000D01*
X435000Y400000D01*
X435000Y590000D01*
G36*
X645054Y633929D02*
X953549Y634035D01*
X960000Y377500D01*
X645000Y392500D01*
X645136Y633732D01*
X645054Y633929D01*
G37*
G54D23*
X645054Y633929D02*
X953549Y634035D01*
X960000Y377500D01*
X645000Y392500D01*
X645136Y633732D01*
X645054Y633929D01*
G36*
X625000Y590000D02*
X645000Y590000D01*
X645000Y400000D01*
X625000Y400000D01*
X625000Y590000D01*
G37*
G54D23*
X625000Y590000D02*
X645000Y590000D01*
X645000Y400000D01*
X625000Y400000D01*
X625000Y590000D01*
X45000Y955000D02*
G54D24*
D03*
X910000Y955000D02*
G54D24*
D03*
X910000Y445000D02*
G54D25*
D03*
X45000Y445000D02*
G54D25*
D03*
G36*
X16918Y982362D02*
X83779Y982362D01*
X83779Y915501D01*
X16918Y915501D01*
X16918Y982362D01*
G37*
G54D23*
X16918Y982362D02*
X83779Y982362D01*
X83779Y915501D01*
X16918Y915501D01*
X16918Y982362D01*
G36*
X872304Y916088D02*
X938867Y916088D01*
X938867Y982806D01*
X872304Y982806D01*
X872304Y916088D01*
G37*
G54D23*
X872304Y916088D02*
X938867Y916088D01*
X938867Y982806D01*
X872304Y982806D01*
X872304Y916088D01*
X295000Y698800D02*
G54D26*
D03*
X295000Y724200D02*
G54D26*
D03*
X295000Y749600D02*
G54D26*
D03*
X295000Y775000D02*
G54D26*
D03*
X438632Y762575D02*
G54D15*
D03*
X464185Y749899D02*
G54D15*
D03*
G54D19*
X565630Y825550D02*
X565522Y801411D01*
X526853Y762698D01*
X438632Y762575D01*
G54D19*
X591030Y825547D02*
X590975Y791699D01*
X549620Y750236D01*
X463984Y750101D01*
X464185Y749899D01*
G54D19*
X133890Y889050D02*
X135950Y889050D01*
X190000Y835000D01*
X300000Y835000D01*
X330000Y805000D01*
X353893Y805000D01*
X362546Y813653D01*
X362546Y825431D01*
X362430Y825547D01*
G54D19*
X133890Y889050D02*
X133890Y871110D01*
X190000Y815000D01*
X294312Y815000D01*
X372470Y736842D01*
X450863Y736842D01*
X658852Y736643D01*
G54D19*
X531153Y805005D02*
X353893Y805000D01*
G36*
X800100Y698500D02*
X939800Y698500D01*
X939800Y628650D01*
X800100Y628650D01*
X800100Y698500D01*
G37*
G54D23*
X800100Y698500D02*
X939800Y698500D01*
X939800Y628650D01*
X800100Y628650D01*
X800100Y698500D01*
X889000Y647700D02*
G54D27*
D03*
G54D28*
X889000Y647700D02*
X835478Y647700D01*
X819315Y663863D01*
X819315Y707493D01*
G54D19*
X531153Y805005D02*
X531153Y831153D01*
X540959Y840959D01*
X550184Y840959D01*
X552768Y843542D01*
X552768Y863367D01*
X553000Y863600D01*
X254000Y749300D02*
G54D16*
D03*
X254000Y723900D02*
G54D16*
D03*
X254000Y698500D02*
G54D16*
D03*
G54D19*
X337030Y673147D02*
X274040Y673147D01*
X273958Y673065D01*
X273958Y716964D01*
X266667Y724256D01*
X254356Y724256D01*
X254000Y723900D01*
G54D19*
X362430Y673147D02*
X362430Y662727D01*
X351042Y651339D01*
X322470Y651339D01*
X315476Y658333D01*
X267262Y658333D01*
X254018Y671577D01*
X254018Y698482D01*
X254000Y698500D01*
G54D29*
X845092Y584250D02*
X845092Y504223D01*
X845206Y504110D01*
X798296Y457200D01*
X469900Y457200D01*
X418300Y546900D01*
X387900Y546900D01*
X385858Y544858D01*
X506200Y942000D02*
G54D30*
D03*
X607800Y942000D02*
G54D30*
D03*
X767517Y889000D02*
G54D30*
D03*
X818317Y889000D02*
G54D30*
D03*
%LPD*%
G54D31*
G36*
X89133Y698500D02*
X89133Y684000D01*
X78667Y684000D01*
X78667Y698500D01*
X89133Y698500D01*
G37*
G36*
X83900Y693267D02*
X69400Y693267D01*
X69400Y703733D01*
X83900Y703733D01*
X83900Y693267D01*
G37*
G36*
X83900Y703733D02*
X98400Y703733D01*
X98400Y693267D01*
X83900Y693267D01*
X83900Y703733D01*
G37*
G54D32*
G36*
X459899Y603773D02*
X459899Y611773D01*
X466899Y611773D01*
X466899Y603773D01*
X459899Y603773D01*
G37*
G36*
X460924Y606247D02*
X466581Y611904D01*
X471530Y606955D01*
X465874Y601298D01*
X460924Y606247D01*
G37*
G36*
X463399Y607273D02*
X471399Y607273D01*
X471399Y600273D01*
X463399Y600273D01*
X463399Y607273D01*
G37*
G36*
X465874Y606247D02*
X471530Y600591D01*
X466581Y595641D01*
X460924Y601298D01*
X465874Y606247D01*
G37*
G36*
X466899Y603773D02*
X466899Y595773D01*
X459899Y595773D01*
X459899Y603773D01*
X466899Y603773D01*
G37*
G36*
X465874Y601298D02*
X460217Y595641D01*
X455267Y600591D01*
X460924Y606247D01*
X465874Y601298D01*
G37*
G36*
X463399Y600273D02*
X455399Y600273D01*
X455399Y607273D01*
X463399Y607273D01*
X463399Y600273D01*
G37*
G36*
X460924Y601298D02*
X455267Y606955D01*
X460217Y611904D01*
X465874Y606247D01*
X460924Y601298D01*
G37*
G54D28*
G36*
X625110Y599910D02*
X625110Y614410D01*
X645110Y614410D01*
X645110Y599910D01*
X625110Y599910D01*
G37*
G54D32*
G36*
X670859Y897150D02*
X670859Y889150D01*
X663859Y889150D01*
X663859Y897150D01*
X670859Y897150D01*
G37*
G36*
X669834Y894675D02*
X664177Y889018D01*
X659227Y893968D01*
X664884Y899625D01*
X669834Y894675D01*
G37*
G36*
X667359Y893650D02*
X659359Y893650D01*
X659359Y900650D01*
X667359Y900650D01*
X667359Y893650D01*
G37*
G36*
X664884Y894675D02*
X659227Y900332D01*
X664177Y905282D01*
X669834Y899625D01*
X664884Y894675D01*
G37*
G36*
X663859Y897150D02*
X663859Y905150D01*
X670859Y905150D01*
X670859Y897150D01*
X663859Y897150D01*
G37*
G36*
X664884Y899625D02*
X670541Y905282D01*
X675490Y900332D01*
X669834Y894675D01*
X664884Y899625D01*
G37*
G36*
X667359Y900650D02*
X675359Y900650D01*
X675359Y893650D01*
X667359Y893650D01*
X667359Y900650D01*
G37*
G36*
X669834Y899625D02*
X675490Y893968D01*
X670541Y889018D01*
X664884Y894675D01*
X669834Y899625D01*
G37*
G54D33*
G36*
X229546Y888974D02*
X229546Y902474D01*
X241426Y902474D01*
X241426Y888974D01*
X229546Y888974D01*
G37*
G36*
X241426Y888974D02*
X241426Y875474D01*
X229546Y875474D01*
X229546Y888974D01*
X241426Y888974D01*
G37*
G36*
X235486Y883034D02*
X221986Y883034D01*
X221986Y894914D01*
X235486Y894914D01*
X235486Y883034D01*
G37*
G54D32*
G36*
X291960Y890393D02*
X291960Y898393D01*
X298960Y898393D01*
X298960Y890393D01*
X291960Y890393D01*
G37*
G36*
X292985Y892868D02*
X298642Y898524D01*
X303592Y893575D01*
X297935Y887918D01*
X292985Y892868D01*
G37*
G36*
X295460Y893893D02*
X303460Y893893D01*
X303460Y886893D01*
X295460Y886893D01*
X295460Y893893D01*
G37*
G36*
X297935Y892868D02*
X303592Y887211D01*
X298642Y882261D01*
X292985Y887918D01*
X297935Y892868D01*
G37*
G36*
X298960Y890393D02*
X298960Y882393D01*
X291960Y882393D01*
X291960Y890393D01*
X298960Y890393D01*
G37*
G36*
X297935Y887918D02*
X292278Y882261D01*
X287329Y887211D01*
X292985Y892868D01*
X297935Y887918D01*
G37*
G36*
X295460Y886893D02*
X287460Y886893D01*
X287460Y893893D01*
X295460Y893893D01*
X295460Y886893D01*
G37*
G36*
X292985Y887918D02*
X287329Y893575D01*
X292278Y898524D01*
X297935Y892868D01*
X292985Y887918D01*
G37*
G54D32*
G36*
X319579Y890393D02*
X319579Y898393D01*
X326579Y898393D01*
X326579Y890393D01*
X319579Y890393D01*
G37*
G36*
X320604Y892868D02*
X326261Y898524D01*
X331211Y893575D01*
X325554Y887918D01*
X320604Y892868D01*
G37*
G36*
X323079Y893893D02*
X331079Y893893D01*
X331079Y886893D01*
X323079Y886893D01*
X323079Y893893D01*
G37*
G36*
X325554Y892868D02*
X331211Y887211D01*
X326261Y882261D01*
X320604Y887918D01*
X325554Y892868D01*
G37*
G36*
X326579Y890393D02*
X326579Y882393D01*
X319579Y882393D01*
X319579Y890393D01*
X326579Y890393D01*
G37*
G36*
X325554Y887918D02*
X319897Y882261D01*
X314948Y887211D01*
X320604Y892868D01*
X325554Y887918D01*
G37*
G36*
X323079Y886893D02*
X315079Y886893D01*
X315079Y893893D01*
X323079Y893893D01*
X323079Y886893D01*
G37*
G36*
X320604Y887918D02*
X314948Y893575D01*
X319897Y898524D01*
X325554Y892868D01*
X320604Y887918D01*
G37*
G54D32*
G36*
X394436Y920077D02*
X394436Y912077D01*
X387436Y912077D01*
X387436Y920077D01*
X394436Y920077D01*
G37*
G36*
X393411Y917602D02*
X387754Y911945D01*
X382805Y916895D01*
X388461Y922552D01*
X393411Y917602D01*
G37*
G36*
X390936Y916577D02*
X382936Y916577D01*
X382936Y923577D01*
X390936Y923577D01*
X390936Y916577D01*
G37*
G36*
X388461Y917602D02*
X382805Y923259D01*
X387754Y928208D01*
X393411Y922552D01*
X388461Y917602D01*
G37*
G36*
X387436Y920077D02*
X387436Y928077D01*
X394436Y928077D01*
X394436Y920077D01*
X387436Y920077D01*
G37*
G36*
X388461Y922552D02*
X394118Y928208D01*
X399068Y923259D01*
X393411Y917602D01*
X388461Y922552D01*
G37*
G36*
X390936Y923577D02*
X398936Y923577D01*
X398936Y916577D01*
X390936Y916577D01*
X390936Y923577D01*
G37*
G36*
X393411Y922552D02*
X399068Y916895D01*
X394118Y911945D01*
X388461Y917602D01*
X393411Y922552D01*
G37*
G54D32*
G36*
X394542Y905341D02*
X394542Y897341D01*
X387542Y897341D01*
X387542Y905341D01*
X394542Y905341D01*
G37*
G36*
X393517Y902866D02*
X387860Y897209D01*
X382911Y902159D01*
X388567Y907816D01*
X393517Y902866D01*
G37*
G36*
X391042Y901841D02*
X383042Y901841D01*
X383042Y908841D01*
X391042Y908841D01*
X391042Y901841D01*
G37*
G36*
X388567Y902866D02*
X382911Y908523D01*
X387860Y913472D01*
X393517Y907816D01*
X388567Y902866D01*
G37*
G36*
X387542Y905341D02*
X387542Y913341D01*
X394542Y913341D01*
X394542Y905341D01*
X387542Y905341D01*
G37*
G36*
X388567Y907816D02*
X394224Y913472D01*
X399174Y908523D01*
X393517Y902866D01*
X388567Y907816D01*
G37*
G36*
X391042Y908841D02*
X399042Y908841D01*
X399042Y901841D01*
X391042Y901841D01*
X391042Y908841D01*
G37*
G36*
X393517Y907816D02*
X399174Y902159D01*
X394224Y897209D01*
X388567Y902866D01*
X393517Y907816D01*
G37*
G54D32*
G36*
X394667Y890652D02*
X394667Y882652D01*
X387667Y882652D01*
X387667Y890652D01*
X394667Y890652D01*
G37*
G36*
X393642Y888177D02*
X387985Y882520D01*
X383036Y887470D01*
X388692Y893127D01*
X393642Y888177D01*
G37*
G36*
X391167Y887152D02*
X383167Y887152D01*
X383167Y894152D01*
X391167Y894152D01*
X391167Y887152D01*
G37*
G36*
X388692Y888177D02*
X383036Y893834D01*
X387985Y898783D01*
X393642Y893127D01*
X388692Y888177D01*
G37*
G36*
X387667Y890652D02*
X387667Y898652D01*
X394667Y898652D01*
X394667Y890652D01*
X387667Y890652D01*
G37*
G36*
X388692Y893127D02*
X394349Y898783D01*
X399299Y893834D01*
X393642Y888177D01*
X388692Y893127D01*
G37*
G36*
X391167Y894152D02*
X399167Y894152D01*
X399167Y887152D01*
X391167Y887152D01*
X391167Y894152D01*
G37*
G36*
X393642Y893127D02*
X399299Y887470D01*
X394349Y882520D01*
X388692Y888177D01*
X393642Y893127D01*
G37*
G54D32*
G36*
X394436Y875786D02*
X394436Y867786D01*
X387436Y867786D01*
X387436Y875786D01*
X394436Y875786D01*
G37*
G36*
X393411Y873311D02*
X387754Y867654D01*
X382805Y872604D01*
X388461Y878261D01*
X393411Y873311D01*
G37*
G36*
X390936Y872286D02*
X382936Y872286D01*
X382936Y879286D01*
X390936Y879286D01*
X390936Y872286D01*
G37*
G36*
X388461Y873311D02*
X382805Y878968D01*
X387754Y883917D01*
X393411Y878261D01*
X388461Y873311D01*
G37*
G36*
X387436Y875786D02*
X387436Y883786D01*
X394436Y883786D01*
X394436Y875786D01*
X387436Y875786D01*
G37*
G36*
X388461Y878261D02*
X394118Y883917D01*
X399068Y878968D01*
X393411Y873311D01*
X388461Y878261D01*
G37*
G36*
X390936Y879286D02*
X398936Y879286D01*
X398936Y872286D01*
X390936Y872286D01*
X390936Y879286D01*
G37*
G36*
X393411Y878261D02*
X399068Y872604D01*
X394118Y867654D01*
X388461Y873311D01*
X393411Y878261D01*
G37*
G54D34*
G36*
X124973Y889050D02*
X124973Y906050D01*
X142807Y906050D01*
X142807Y889050D01*
X124973Y889050D01*
G37*
X692630Y825547D02*
G54D35*
D03*
X641830Y825547D02*
G54D35*
D03*
X616429Y825545D02*
G54D35*
D03*
X591030Y825547D02*
G54D35*
D03*
X565630Y825550D02*
G54D35*
D03*
X514829Y825545D02*
G54D35*
D03*
X489430Y825547D02*
G54D35*
D03*
X464030Y825547D02*
G54D35*
D03*
X692630Y673147D02*
G54D35*
D03*
X667230Y673147D02*
G54D35*
D03*
X641830Y673147D02*
G54D35*
D03*
X565630Y673147D02*
G54D35*
D03*
X540230Y673147D02*
G54D35*
D03*
X514830Y673147D02*
G54D35*
D03*
X489430Y673147D02*
G54D35*
D03*
X464030Y673147D02*
G54D35*
D03*
X438630Y825547D02*
G54D35*
D03*
X413230Y825547D02*
G54D35*
D03*
X387830Y825547D02*
G54D35*
D03*
X362430Y825547D02*
G54D35*
D03*
X337030Y825547D02*
G54D35*
D03*
X438630Y673147D02*
G54D35*
D03*
X413230Y673147D02*
G54D35*
D03*
X387830Y673147D02*
G54D35*
D03*
X362430Y673147D02*
G54D35*
D03*
X337030Y673147D02*
G54D35*
D03*
X83900Y800100D02*
G54D35*
D03*
X83900Y774700D02*
G54D35*
D03*
X83900Y749300D02*
G54D35*
D03*
X83900Y723900D02*
G54D35*
D03*
X83900Y698500D02*
G54D35*
D03*
X476800Y863600D02*
G54D35*
D03*
X502200Y863600D02*
G54D35*
D03*
X527600Y863600D02*
G54D35*
D03*
X553000Y863600D02*
G54D35*
D03*
X819674Y707852D02*
G54D36*
D03*
X787244Y723452D02*
G54D36*
D03*
X852099Y723453D02*
G54D36*
D03*
X779204Y758552D02*
G54D36*
D03*
X860144Y758539D02*
G54D36*
D03*
X837774Y786702D02*
G54D36*
D03*
X258858Y594858D02*
G54D37*
D03*
X258858Y494858D02*
G54D37*
D03*
X360458Y494858D02*
G54D37*
D03*
X360458Y594858D02*
G54D37*
D03*
X385858Y544858D02*
G54D37*
D03*
X463399Y603773D02*
G54D38*
D03*
X660509Y599915D02*
G54D39*
D03*
X635110Y599910D02*
G54D39*
D03*
X609709Y599915D02*
G54D39*
D03*
X660509Y523715D02*
G54D39*
D03*
X635109Y523715D02*
G54D39*
D03*
X609709Y523715D02*
G54D39*
D03*
X496147Y555872D02*
G54D40*
D03*
X496118Y530518D02*
G54D40*
D03*
X496147Y505072D02*
G54D40*
D03*
X178139Y594858D02*
G54D41*
D03*
X178139Y544058D02*
G54D41*
D03*
X178139Y493258D02*
G54D41*
D03*
X794293Y584249D02*
G54D41*
D03*
X845092Y584250D02*
G54D41*
D03*
X658852Y736643D02*
G54D38*
D03*
X658733Y762119D02*
G54D38*
D03*
X718061Y779856D02*
G54D38*
D03*
X636645Y774701D02*
G54D38*
D03*
X595752Y774298D02*
G54D38*
D03*
G54D42*
X595752Y774298D02*
X636645Y774701D01*
G54D42*
X502200Y863600D02*
X489430Y825547D01*
X663623Y783777D02*
G54D38*
D03*
X663623Y805755D02*
G54D38*
D03*
G54D42*
X663623Y783777D02*
X663623Y805755D01*
X667359Y897150D02*
G54D38*
D03*
X743495Y795571D02*
G54D38*
D03*
G54D42*
X743495Y795571D02*
X743449Y825397D01*
X767360Y849264D01*
X767517Y889000D01*
X235486Y888974D02*
G54D43*
D03*
X260886Y888974D02*
G54D43*
D03*
X295460Y890393D02*
G54D38*
D03*
X323079Y890393D02*
G54D38*
D03*
X390936Y920077D02*
G54D38*
D03*
X391042Y905341D02*
G54D38*
D03*
X391167Y890652D02*
G54D38*
D03*
X390936Y875786D02*
G54D38*
D03*
X133890Y889050D02*
G54D41*
D03*
X184692Y889050D02*
G54D41*
D03*
X730400Y733901D02*
G54D38*
D03*
G54D42*
X730400Y733901D02*
X730000Y780000D01*
X718061Y779856D01*
X693444Y714196D02*
G54D38*
D03*
G54D42*
X693444Y714196D02*
X693444Y761256D01*
X692700Y762000D01*
X658852Y762000D01*
X658733Y762119D01*
G54D42*
X133890Y889050D02*
X133900Y850900D01*
X235282Y749356D01*
X254000Y749300D01*
X295000Y724200D01*
X765601Y795576D02*
G54D44*
D03*
G54D45*
X818317Y889000D02*
X818317Y868300D01*
X765319Y815678D01*
X765601Y795576D01*
X45000Y955000D02*
G54D46*
D03*
X910000Y955000D02*
G54D46*
D03*
X910000Y445000D02*
G54D46*
D03*
X45000Y445000D02*
G54D46*
D03*
X295000Y698800D02*
G54D47*
D03*
X295000Y724200D02*
G54D47*
D03*
X295000Y749600D02*
G54D47*
D03*
X295000Y775000D02*
G54D47*
D03*
X438632Y762575D02*
G54D38*
D03*
X464185Y749899D02*
G54D38*
D03*
G54D42*
X565630Y825550D02*
X565522Y801411D01*
X526853Y762698D01*
X438632Y762575D01*
G54D42*
X591030Y825547D02*
X590975Y791699D01*
X549620Y750236D01*
X463984Y750101D01*
X464185Y749899D01*
G54D42*
X133890Y889050D02*
X135950Y889050D01*
X190000Y835000D01*
X300000Y835000D01*
X330000Y805000D01*
X353893Y805000D01*
X362546Y813653D01*
X362546Y825431D01*
X362430Y825547D01*
G54D42*
X133890Y889050D02*
X133890Y871110D01*
X190000Y815000D01*
X294312Y815000D01*
X372470Y736842D01*
X450863Y736842D01*
X658852Y736643D01*
G54D42*
X531153Y805005D02*
X353893Y805000D01*
X889000Y647700D02*
G54D48*
D03*
G54D49*
X889000Y647700D02*
X835478Y647700D01*
X819315Y663863D01*
X819315Y707493D01*
G54D42*
X531153Y805005D02*
X531153Y831153D01*
X540959Y840959D01*
X550184Y840959D01*
X552768Y843542D01*
X552768Y863367D01*
X553000Y863600D01*
X254000Y749300D02*
G54D39*
D03*
X254000Y723900D02*
G54D39*
D03*
X254000Y698500D02*
G54D39*
D03*
G54D42*
X337030Y673147D02*
X274040Y673147D01*
X273958Y673065D01*
X273958Y716964D01*
X266667Y724256D01*
X254356Y724256D01*
X254000Y723900D01*
G54D42*
X362430Y673147D02*
X362430Y662727D01*
X351042Y651339D01*
X322470Y651339D01*
X315476Y658333D01*
X267262Y658333D01*
X254018Y671577D01*
X254018Y698482D01*
X254000Y698500D01*
G54D28*
X845092Y584250D02*
X845092Y504223D01*
X845206Y504110D01*
X798296Y457200D01*
X469900Y457200D01*
X418300Y546900D01*
X387900Y546900D01*
X385858Y544858D01*
X506200Y942000D02*
G54D50*
D03*
X607800Y942000D02*
G54D50*
D03*
X767517Y889000D02*
G54D50*
D03*
X818317Y889000D02*
G54D50*
D03*
M02*
