%FSLAX34Y34*%
%MOMM*%
%LNCOPPER_TOP*%
G71*
G01*
%ADD10C, 2.00*%
%ADD11C, 2.70*%
%ADD12R, 1.27X0.65*%
%ADD13C, 2.30*%
%ADD14R, 1.40X0.70*%
%ADD15R, 1.60X0.87*%
%ADD16C, 0.60*%
%ADD17C, 0.70*%
%ADD18C, 2.00*%
%ADD19C, 2.00*%
%ADD20C, 2.00*%
%ADD21C, 2.50*%
%ADD22R, 1.90X1.00*%
%ADD23C, 1.80*%
%ADD24C, 1.00*%
%ADD25R, 1.60X5.70*%
%ADD26R, 5.10X5.00*%
%ADD27R, 0.87X1.60*%
%ADD28C, 1.00*%
%ADD29C, 5.50*%
%ADD30C, 1.90*%
%ADD31C, 1.20*%
%ADD32C, 1.00*%
%ADD33C, 2.00*%
%LPD*%
X692630Y825547D02*
G54D10*
D03*
X641830Y825547D02*
G54D10*
D03*
X616429Y825545D02*
G54D10*
D03*
X591030Y825547D02*
G54D10*
D03*
X565630Y825550D02*
G54D10*
D03*
X514829Y825545D02*
G54D10*
D03*
X489430Y825547D02*
G54D10*
D03*
X464030Y825547D02*
G54D10*
D03*
X692630Y673147D02*
G54D10*
D03*
X667230Y673147D02*
G54D10*
D03*
X641830Y673147D02*
G54D10*
D03*
X565630Y673147D02*
G54D10*
D03*
X540230Y673147D02*
G54D10*
D03*
X514830Y673147D02*
G54D10*
D03*
X489430Y673147D02*
G54D10*
D03*
X464030Y673147D02*
G54D10*
D03*
X438630Y825547D02*
G54D10*
D03*
X413230Y825547D02*
G54D10*
D03*
X387830Y825547D02*
G54D10*
D03*
X362430Y825547D02*
G54D10*
D03*
X337030Y825547D02*
G54D10*
D03*
X438630Y673147D02*
G54D10*
D03*
X413230Y673147D02*
G54D10*
D03*
X387830Y673147D02*
G54D10*
D03*
X362430Y673147D02*
G54D10*
D03*
X337030Y673147D02*
G54D10*
D03*
X83900Y800100D02*
G54D10*
D03*
X83900Y774700D02*
G54D10*
D03*
X83900Y749300D02*
G54D10*
D03*
X83900Y723900D02*
G54D10*
D03*
X83900Y698500D02*
G54D10*
D03*
X476800Y863600D02*
G54D10*
D03*
X502200Y863600D02*
G54D10*
D03*
X527600Y863600D02*
G54D10*
D03*
X553000Y863600D02*
G54D10*
D03*
X819674Y707852D02*
G54D11*
D03*
X787244Y723452D02*
G54D11*
D03*
X852099Y723453D02*
G54D11*
D03*
X779204Y758552D02*
G54D11*
D03*
X860144Y758539D02*
G54D11*
D03*
X837774Y786702D02*
G54D11*
D03*
X641846Y762131D02*
G54D12*
D03*
X641846Y749431D02*
G54D12*
D03*
X641846Y736731D02*
G54D12*
D03*
X641846Y724031D02*
G54D12*
D03*
X591046Y724031D02*
G54D12*
D03*
X591046Y736731D02*
G54D12*
D03*
X591046Y749431D02*
G54D12*
D03*
X591046Y762131D02*
G54D12*
D03*
X258858Y594858D02*
G54D13*
D03*
X258858Y494858D02*
G54D13*
D03*
X360458Y494858D02*
G54D13*
D03*
X360458Y594858D02*
G54D13*
D03*
X385858Y544858D02*
G54D13*
D03*
X442444Y593854D02*
G54D14*
D03*
X442444Y612854D02*
G54D14*
D03*
X421444Y603354D02*
G54D14*
D03*
X463562Y588134D02*
G54D15*
D03*
X463562Y618534D02*
G54D15*
D03*
X488962Y588134D02*
G54D15*
D03*
X488962Y618534D02*
G54D15*
D03*
G54D16*
X488962Y588134D02*
X463562Y588134D01*
G54D16*
X463562Y588134D02*
X455135Y588134D01*
X449696Y593573D01*
G54D16*
X449524Y612935D02*
X449786Y612935D01*
X455022Y618170D01*
X463199Y618170D01*
X463562Y618534D01*
X463399Y603773D02*
G54D17*
D03*
G54D16*
X463562Y618534D02*
X463562Y603936D01*
X463399Y603773D01*
X660509Y599915D02*
G54D18*
D03*
X635110Y599910D02*
G54D18*
D03*
X609709Y599915D02*
G54D18*
D03*
X660509Y523715D02*
G54D18*
D03*
X635109Y523715D02*
G54D18*
D03*
X609709Y523715D02*
G54D18*
D03*
G36*
X626129Y641043D02*
X634829Y641043D01*
X634829Y625043D01*
X626129Y625043D01*
X626129Y641043D01*
G37*
G36*
X656529Y641043D02*
X665229Y641043D01*
X665229Y625043D01*
X656529Y625043D01*
X656529Y641043D01*
G37*
X496147Y555872D02*
G54D19*
D03*
X496118Y530518D02*
G54D19*
D03*
X496147Y505072D02*
G54D19*
D03*
X527036Y540837D02*
G54D15*
D03*
X527036Y571237D02*
G54D15*
D03*
X551408Y555768D02*
G54D15*
D03*
X551408Y525369D02*
G54D15*
D03*
G54D20*
X496147Y505072D02*
X496147Y504721D01*
X505841Y495027D01*
X735644Y495027D01*
G54D16*
X496147Y555872D02*
X551304Y555872D01*
X551408Y555768D01*
G54D16*
X496381Y530519D02*
X516980Y530519D01*
X527299Y540838D01*
G54D16*
X551408Y555768D02*
X552381Y555768D01*
X584383Y523766D01*
X609658Y523766D01*
X609709Y523715D01*
G54D16*
X527036Y571237D02*
X575012Y571237D01*
X597083Y549166D01*
X647758Y549166D01*
X660509Y536415D01*
X660509Y523715D01*
G54D16*
X551408Y525369D02*
X551408Y499172D01*
X551269Y499033D01*
G54D16*
X362783Y597128D02*
X362902Y597128D01*
X368855Y603080D01*
X420045Y603080D01*
X178139Y594858D02*
G54D21*
D03*
X178139Y544058D02*
G54D21*
D03*
X178139Y493258D02*
G54D21*
D03*
G54D20*
X178139Y594858D02*
X258858Y594858D01*
G54D20*
X178139Y544058D02*
X202927Y544058D01*
X217259Y527704D01*
X217642Y470533D01*
X229079Y458085D01*
X409875Y458442D01*
X465000Y530000D01*
X496118Y530518D01*
X794293Y584249D02*
G54D21*
D03*
X845092Y584250D02*
G54D21*
D03*
G54D20*
X735644Y495027D02*
X768627Y495027D01*
X794300Y520700D01*
X794293Y584249D01*
G54D16*
X83900Y749300D02*
X124300Y749300D01*
X152000Y721600D01*
X152000Y696200D01*
X179700Y668500D01*
X306310Y668602D01*
X328459Y651037D01*
X446080Y650940D01*
X463700Y658217D01*
X463630Y673147D01*
G54D16*
X83900Y774700D02*
X122000Y774700D01*
X169700Y727000D01*
X169700Y698900D01*
X186780Y681997D01*
X305877Y682009D01*
X327611Y696144D01*
X439100Y696318D01*
X438630Y673147D01*
G54D16*
X83900Y723900D02*
X126464Y723561D01*
X139300Y711200D01*
X139300Y685800D01*
X172000Y653100D01*
X300029Y653243D01*
X320446Y637576D01*
X450701Y637629D01*
X489359Y656428D01*
X489430Y673147D01*
G54D16*
X591046Y762131D02*
X540431Y762131D01*
X540300Y762000D01*
X527600Y762000D01*
X514900Y749300D01*
X514900Y673217D01*
X514830Y673147D01*
G54D16*
X591046Y749431D02*
X553131Y749431D01*
X540300Y736600D01*
X540230Y673147D01*
G54D16*
X591046Y736731D02*
X578531Y736731D01*
X565700Y723900D01*
X565700Y673218D01*
X565630Y673147D01*
G54D16*
X837774Y786702D02*
X837774Y812795D01*
X837724Y812845D01*
X743545Y812845D01*
X730800Y800100D01*
X730800Y765219D01*
X707245Y764966D01*
X707144Y749358D01*
X641977Y749300D01*
X641846Y749431D01*
G54D16*
X488962Y618534D02*
X488962Y634462D01*
X502200Y647700D01*
X591100Y647700D01*
X603800Y660400D01*
X603800Y685800D01*
X606884Y692365D01*
X606804Y787377D01*
X614640Y795521D01*
X675421Y795522D01*
X692700Y812800D01*
X692700Y825477D01*
X692630Y825547D01*
X658852Y736643D02*
G54D17*
D03*
G54D16*
X641846Y736731D02*
X658764Y736731D01*
X658852Y736643D01*
X665395Y734138D01*
X678678Y734155D01*
G54D16*
X641846Y762131D02*
X658733Y762119D01*
X665134Y764528D01*
X678678Y764555D01*
X658733Y762119D02*
G54D17*
D03*
X718061Y779856D02*
G54D17*
D03*
G54D16*
X718061Y779856D02*
X718061Y780052D01*
X718061Y779856D01*
X718061Y812761D01*
X730800Y825500D01*
X845100Y825500D01*
X857800Y812800D01*
X857933Y812800D01*
X860638Y810095D01*
X860638Y759032D01*
X860144Y758539D01*
G54D16*
X83900Y800100D02*
X400600Y800100D01*
X413300Y812800D01*
X413300Y825477D01*
X413230Y825547D01*
X413230Y812870D01*
X413296Y790971D01*
X429300Y774366D01*
X595752Y774298D01*
G54D16*
X636645Y774701D02*
X654600Y774700D01*
X658733Y762119D01*
X636645Y774701D02*
G54D17*
D03*
X595752Y774298D02*
G54D17*
D03*
X678678Y764555D02*
G54D15*
D03*
X678678Y734155D02*
G54D15*
D03*
G54D16*
X692630Y673147D02*
X838680Y673147D01*
X851889Y686356D01*
X851889Y723243D01*
X852099Y723453D01*
G54D16*
X641846Y724031D02*
X654469Y724031D01*
X654600Y723900D01*
X654600Y736600D01*
G54D16*
X660509Y599915D02*
X660509Y632673D01*
X660879Y633043D01*
G54D16*
X630479Y633043D02*
X630479Y648074D01*
X641604Y659199D01*
X641604Y672922D01*
X641830Y673147D01*
G54D16*
X476800Y863600D02*
X476800Y863573D01*
X514829Y825545D01*
X663623Y783777D02*
G54D17*
D03*
X663623Y805755D02*
G54D17*
D03*
G54D16*
X667230Y673147D02*
X667230Y685870D01*
X654600Y698500D01*
X631684Y698500D01*
X625345Y704839D01*
X625345Y780738D01*
X628750Y784143D01*
X663257Y784143D01*
X663623Y783777D01*
X688313Y907069D02*
G54D14*
D03*
X688313Y888069D02*
G54D14*
D03*
X709313Y897569D02*
G54D14*
D03*
X667195Y912789D02*
G54D15*
D03*
X667195Y882389D02*
G54D15*
D03*
X641795Y912789D02*
G54D15*
D03*
X641795Y882389D02*
G54D15*
D03*
G54D16*
X641795Y912789D02*
X667195Y912789D01*
G54D16*
X667195Y912789D02*
X675622Y912789D01*
X681061Y907350D01*
G54D16*
X681233Y887988D02*
X680971Y887988D01*
X675736Y882752D01*
X667559Y882752D01*
X667195Y882389D01*
X667359Y897150D02*
G54D17*
D03*
G54D16*
X667195Y882389D02*
X667195Y896987D01*
X667359Y897150D01*
G54D16*
X663623Y805755D02*
X663623Y815304D01*
X658320Y820608D01*
X658348Y838098D01*
X638961Y851572D01*
X638942Y878647D01*
X743495Y795571D02*
G54D17*
D03*
G54D16*
X743495Y795571D02*
X743495Y736605D01*
X756200Y723900D01*
X786796Y723900D01*
X787244Y723452D01*
X349756Y920692D02*
G54D22*
D03*
X349856Y875092D02*
G54D22*
D03*
X295497Y905930D02*
G54D15*
D03*
X295497Y875530D02*
G54D15*
D03*
X323032Y905943D02*
G54D15*
D03*
X323032Y875543D02*
G54D15*
D03*
X235486Y888974D02*
G54D23*
D03*
X260886Y888974D02*
G54D23*
D03*
G54D24*
X184692Y920542D02*
X349632Y920569D01*
X349756Y920692D01*
G54D24*
X349856Y875092D02*
X323484Y875092D01*
G54D24*
X320536Y857069D02*
X270592Y857069D01*
X260886Y866774D01*
X260886Y888974D01*
X295460Y890393D02*
G54D17*
D03*
X323079Y890393D02*
G54D17*
D03*
G54D16*
X295460Y890393D02*
X295460Y875567D01*
X295497Y875530D01*
G54D16*
X323079Y890393D02*
X323079Y905896D01*
X323032Y905943D01*
G54D16*
X393929Y919988D02*
X393936Y875785D01*
G54D16*
X393936Y875785D02*
X390936Y875785D01*
X390936Y920077D01*
X393929Y919988D01*
X390936Y920077D02*
G54D17*
D03*
X391042Y905341D02*
G54D17*
D03*
X391167Y890652D02*
G54D17*
D03*
X390936Y875786D02*
G54D17*
D03*
X441790Y897795D02*
G54D25*
D03*
X420289Y897830D02*
G54D26*
D03*
G54D24*
X320561Y857040D02*
X323116Y857040D01*
X323146Y857070D01*
X323146Y874254D01*
X323287Y874394D01*
G54D24*
X323146Y857070D02*
X394430Y857070D01*
X413300Y838200D01*
X413300Y825618D01*
X413230Y825547D01*
G54D16*
X527600Y775100D02*
X539976Y787593D01*
X540300Y812800D01*
X531483Y820708D01*
X531483Y841339D01*
X527513Y845310D01*
X527513Y863513D01*
X527600Y863600D01*
X133890Y889050D02*
G54D21*
D03*
X184692Y889050D02*
G54D21*
D03*
G54D24*
X184700Y889000D02*
X184692Y920542D01*
X711854Y714273D02*
G54D27*
D03*
X681455Y714273D02*
G54D27*
D03*
X730400Y733901D02*
G54D17*
D03*
G54D16*
X678678Y734155D02*
X730146Y734155D01*
X730400Y733901D01*
X693444Y714196D02*
G54D17*
D03*
G54D16*
X692630Y673147D02*
X692630Y690251D01*
X700741Y698362D01*
X708016Y698362D01*
X711886Y702232D01*
X711886Y714241D01*
X711854Y714273D01*
G54D16*
X693444Y714196D02*
X681532Y714196D01*
X681455Y714273D01*
G54D24*
X184692Y920542D02*
X91483Y920541D01*
X52439Y881699D01*
X52263Y674337D01*
X88900Y637700D01*
X293578Y637699D01*
X334740Y608484D01*
X334907Y504368D01*
X342764Y497175D01*
X362243Y497157D01*
X362500Y496900D01*
G54D24*
X184692Y920542D02*
X184692Y921292D01*
X205400Y942000D01*
X506200Y942000D01*
G54D24*
X765601Y795576D02*
X765601Y772155D01*
X779204Y758552D01*
X765601Y795576D02*
G54D28*
D03*
G54D24*
X295497Y906666D02*
X295497Y920472D01*
X295525Y920500D01*
X45000Y955000D02*
G54D29*
D03*
X910000Y955000D02*
G54D29*
D03*
X910000Y445000D02*
G54D29*
D03*
X45000Y445000D02*
G54D29*
D03*
X707245Y764966D02*
G54D15*
D03*
X707245Y734566D02*
G54D15*
D03*
X295000Y698800D02*
G54D30*
D03*
X295000Y724200D02*
G54D30*
D03*
X295000Y749600D02*
G54D30*
D03*
X295000Y775000D02*
G54D30*
D03*
G54D16*
X286210Y799307D02*
X273510Y786644D01*
X273512Y720685D01*
X294813Y699320D01*
X294859Y699366D01*
G54D16*
X295000Y750000D02*
X464084Y750000D01*
X464185Y749899D01*
G54D16*
X295000Y775000D02*
X392606Y775000D01*
X405030Y762575D01*
X438632Y762575D01*
X438632Y762575D02*
G54D17*
D03*
X464185Y749899D02*
G54D17*
D03*
G54D31*
X178139Y493258D02*
X178140Y444197D01*
X195728Y426291D01*
X806450Y425450D01*
X889000Y508000D01*
X889000Y647700D01*
X889000Y647700D02*
G54D32*
D03*
X254000Y749300D02*
G54D18*
D03*
X254000Y723900D02*
G54D18*
D03*
X254000Y698500D02*
G54D18*
D03*
G36*
X326606Y628497D02*
X335306Y628498D01*
X335306Y612498D01*
X326606Y612497D01*
X326606Y628497D01*
G37*
G36*
X357005Y628498D02*
X365705Y628498D01*
X365706Y612498D01*
X357006Y612498D01*
X357005Y628498D01*
G37*
G54D16*
X361356Y620498D02*
X361356Y595756D01*
X360458Y594858D01*
X758547Y758215D02*
G54D15*
D03*
X758547Y727816D02*
G54D15*
D03*
X506200Y942000D02*
G54D33*
D03*
X607800Y942000D02*
G54D33*
D03*
X669342Y864231D02*
G54D27*
D03*
X638942Y864231D02*
G54D27*
D03*
G54D16*
X669342Y864231D02*
X669342Y880243D01*
X667195Y882389D01*
X767517Y889000D02*
G54D33*
D03*
X818317Y889000D02*
G54D33*
D03*
G54D16*
X709313Y897569D02*
X758948Y897569D01*
X767517Y889000D01*
G54D24*
X607800Y942000D02*
X765317Y942000D01*
X818317Y889000D01*
M02*
