%FSLAX34Y34*%
%MOMM*%
%LNSILK_TOP*%
G71*
G01*
%ADD10C, 0.20*%
%ADD11C, 0.16*%
%ADD12C, 0.70*%
%ADD13C, 0.00*%
%ADD14C, 1.00*%
%ADD15C, 0.15*%
%ADD16C, 0.10*%
%ADD17C, 0.24*%
%ADD18C, 0.32*%
%ADD19C, 0.60*%
%LPD*%
G54D10*
X705330Y831947D02*
X699030Y838247D01*
X686230Y838247D01*
X679930Y831947D01*
X679930Y819147D01*
X686230Y812847D01*
X699030Y812847D01*
X705330Y819147D01*
X705330Y831947D01*
G54D10*
X679930Y831947D02*
X673630Y838247D01*
X660830Y838247D01*
X654530Y831947D01*
X654530Y819147D01*
X660830Y812847D01*
X673630Y812847D01*
X679930Y819147D01*
X679930Y831947D01*
G54D10*
X654530Y831947D02*
X648230Y838247D01*
X635430Y838247D01*
X629130Y831947D01*
X629130Y819147D01*
X635430Y812847D01*
X648230Y812847D01*
X654530Y819147D01*
X654530Y831947D01*
G54D10*
X629130Y831947D02*
X622830Y838247D01*
X610030Y838247D01*
X603730Y831947D01*
X603730Y819147D01*
X610030Y812847D01*
X622830Y812847D01*
X629130Y819147D01*
X629130Y831947D01*
G54D10*
X603730Y831947D02*
X597430Y838247D01*
X584630Y838247D01*
X578330Y831947D01*
X578330Y819147D01*
X584630Y812847D01*
X597430Y812847D01*
X603730Y819147D01*
X603730Y831947D01*
G54D10*
X578330Y831947D02*
X572030Y838247D01*
X559230Y838247D01*
X552930Y831947D01*
X552930Y819147D01*
X559230Y812847D01*
X572030Y812847D01*
X578330Y819147D01*
X578330Y831947D01*
G54D10*
X552930Y831947D02*
X546630Y838247D01*
X533830Y838247D01*
X527530Y831947D01*
X527530Y819147D01*
X533830Y812847D01*
X546630Y812847D01*
X552930Y819147D01*
X552930Y831947D01*
G54D10*
X527530Y831947D02*
X521230Y838247D01*
X508430Y838247D01*
X502130Y831947D01*
X502130Y819147D01*
X508430Y812847D01*
X521230Y812847D01*
X527530Y819147D01*
X527530Y831947D01*
G54D10*
X502130Y831947D02*
X495830Y838247D01*
X483030Y838247D01*
X476730Y831947D01*
X476730Y819147D01*
X483030Y812847D01*
X495830Y812847D01*
X502130Y819147D01*
X502130Y831947D01*
G54D10*
X476730Y831947D02*
X470430Y838247D01*
X457630Y838247D01*
X451330Y831947D01*
X451330Y819147D01*
X457630Y812847D01*
X470430Y812847D01*
X476730Y819147D01*
X476730Y831947D01*
G54D10*
X705330Y679547D02*
X699030Y685847D01*
X686230Y685847D01*
X679930Y679547D01*
X679930Y666747D01*
X686230Y660447D01*
X699030Y660447D01*
X705330Y666747D01*
X705330Y679547D01*
G54D10*
X679930Y679547D02*
X673630Y685847D01*
X660830Y685847D01*
X654530Y679547D01*
X654530Y666747D01*
X660830Y660447D01*
X673630Y660447D01*
X679930Y666747D01*
X679930Y679547D01*
G54D10*
X654530Y679547D02*
X648230Y685847D01*
X635430Y685847D01*
X629130Y679547D01*
X629130Y666747D01*
X635430Y660447D01*
X648230Y660447D01*
X654530Y666747D01*
X654530Y679547D01*
G54D10*
X629130Y679547D02*
X622830Y685847D01*
X610030Y685847D01*
X603730Y679547D01*
X603730Y666747D01*
X610030Y660447D01*
X622830Y660447D01*
X629130Y666747D01*
X629130Y679547D01*
G54D10*
X603730Y679547D02*
X597430Y685847D01*
X584630Y685847D01*
X578330Y679547D01*
X578330Y666747D01*
X584630Y660447D01*
X597430Y660447D01*
X603730Y666747D01*
X603730Y679547D01*
G54D10*
X578330Y679547D02*
X572030Y685847D01*
X559230Y685847D01*
X552930Y679547D01*
X552930Y666747D01*
X559230Y660447D01*
X572030Y660447D01*
X578330Y666747D01*
X578330Y679547D01*
G54D10*
X552930Y679547D02*
X546630Y685847D01*
X533830Y685847D01*
X527530Y679547D01*
X527530Y666747D01*
X533830Y660447D01*
X546630Y660447D01*
X552930Y666747D01*
X552930Y679547D01*
G54D10*
X527530Y679547D02*
X521230Y685847D01*
X508430Y685847D01*
X502130Y679547D01*
X502130Y666747D01*
X508430Y660447D01*
X521230Y660447D01*
X527530Y666747D01*
X527530Y679547D01*
G54D10*
X502130Y679547D02*
X495830Y685847D01*
X483030Y685847D01*
X476730Y679547D01*
X476730Y666747D01*
X483030Y660447D01*
X495830Y660447D01*
X502130Y666747D01*
X502130Y679547D01*
G54D10*
X476730Y679547D02*
X470430Y685847D01*
X457630Y685847D01*
X451330Y679547D01*
X451330Y666747D01*
X457630Y660447D01*
X470430Y660447D01*
X476730Y666747D01*
X476730Y679547D01*
G54D10*
X451330Y831947D02*
X445030Y838247D01*
X432230Y838247D01*
X425930Y831947D01*
X425930Y819147D01*
X432230Y812847D01*
X445030Y812847D01*
X451330Y819147D01*
X451330Y831947D01*
G54D10*
X425930Y831947D02*
X419630Y838247D01*
X406830Y838247D01*
X400530Y831947D01*
X400530Y819147D01*
X406830Y812847D01*
X419630Y812847D01*
X425930Y819147D01*
X425930Y831947D01*
G54D10*
X400530Y831947D02*
X394230Y838247D01*
X381430Y838247D01*
X375130Y831947D01*
X375130Y819147D01*
X381430Y812847D01*
X394230Y812847D01*
X400530Y819147D01*
X400530Y831947D01*
G54D10*
X375130Y831947D02*
X368830Y838247D01*
X356030Y838247D01*
X349730Y831947D01*
X349730Y819147D01*
X356030Y812847D01*
X368830Y812847D01*
X375130Y819147D01*
X375130Y831947D01*
G54D10*
X349730Y831947D02*
X343430Y838247D01*
X330630Y838247D01*
X324330Y831947D01*
X324330Y819147D01*
X330630Y812847D01*
X343430Y812847D01*
X349730Y819147D01*
X349730Y831947D01*
G54D10*
X451330Y679547D02*
X445030Y685847D01*
X432230Y685847D01*
X425930Y679547D01*
X425930Y666747D01*
X432230Y660447D01*
X445030Y660447D01*
X451330Y666747D01*
X451330Y679547D01*
G54D10*
X425930Y679547D02*
X419630Y685847D01*
X406830Y685847D01*
X400530Y679547D01*
X400530Y666747D01*
X406830Y660447D01*
X419630Y660447D01*
X425930Y666747D01*
X425930Y679547D01*
G54D10*
X400530Y679547D02*
X394230Y685847D01*
X381430Y685847D01*
X375130Y679547D01*
X375130Y666747D01*
X381430Y660447D01*
X394230Y660447D01*
X400530Y666747D01*
X400530Y679547D01*
G54D10*
X375130Y679547D02*
X368830Y685847D01*
X356030Y685847D01*
X349730Y679547D01*
X349730Y666747D01*
X356030Y660447D01*
X368830Y660447D01*
X375130Y666747D01*
X375130Y679547D01*
G54D10*
X349730Y679547D02*
X343430Y685847D01*
X330630Y685847D01*
X324330Y679547D01*
X324330Y666747D01*
X330630Y660447D01*
X343430Y660447D01*
X349730Y666747D01*
X349730Y679547D01*
G54D10*
X718030Y850947D02*
X718030Y647747D01*
X311630Y647747D01*
X311630Y850947D01*
X718030Y850947D01*
G54D11*
X687512Y695213D02*
X690846Y698547D01*
X690846Y689658D01*
G54D11*
X699290Y689658D02*
X693956Y689658D01*
X693956Y690213D01*
X694623Y691324D01*
X698623Y694658D01*
X699290Y695769D01*
X699290Y696880D01*
X698623Y697991D01*
X697290Y698547D01*
X695956Y698547D01*
X694623Y697991D01*
X693956Y696880D01*
G54D11*
X661172Y695301D02*
X664505Y698634D01*
X664505Y689746D01*
G54D11*
X667616Y695301D02*
X670949Y698635D01*
X670949Y689746D01*
G54D11*
X589030Y694102D02*
X587696Y694102D01*
X586363Y694658D01*
X585696Y695769D01*
X585696Y696880D01*
X586363Y697991D01*
X587696Y698547D01*
X589030Y698547D01*
X590363Y697991D01*
X591030Y696880D01*
X591030Y695769D01*
X590363Y694658D01*
X589030Y694102D01*
X590363Y693547D01*
X591029Y692436D01*
X591030Y691325D01*
X590363Y690214D01*
X589030Y689658D01*
X587696Y689658D01*
X586363Y690214D01*
X585696Y691325D01*
X585696Y692436D01*
X586363Y693547D01*
X587696Y694102D01*
G54D11*
X560290Y698456D02*
X565624Y698456D01*
X564957Y697345D01*
X563624Y695678D01*
X562290Y693456D01*
X561624Y691789D01*
X561624Y689567D01*
G54D11*
X540230Y696880D02*
X539563Y697991D01*
X538229Y698547D01*
X536896Y698547D01*
X535563Y697991D01*
X534896Y696880D01*
X534896Y694102D01*
X534896Y693547D01*
X536896Y694658D01*
X538230Y694658D01*
X539563Y694102D01*
X540229Y692991D01*
X540229Y691325D01*
X539563Y690214D01*
X538230Y689658D01*
X536896Y689658D01*
X535563Y690214D01*
X534896Y691325D01*
X534896Y694102D01*
G54D11*
X514830Y698547D02*
X509496Y698547D01*
X509496Y694658D01*
X510163Y694658D01*
X511496Y695214D01*
X512830Y695214D01*
X514163Y694658D01*
X514829Y693547D01*
X514830Y691325D01*
X514163Y690214D01*
X512830Y689658D01*
X511496Y689658D01*
X510163Y690214D01*
X509496Y691325D01*
G54D11*
X488187Y689571D02*
X488187Y698460D01*
X484187Y692904D01*
X484187Y691793D01*
X489520Y691793D01*
G54D11*
X458611Y696880D02*
X459278Y697991D01*
X460611Y698547D01*
X461944Y698547D01*
X463278Y697991D01*
X463944Y696880D01*
X463944Y695769D01*
X463278Y694658D01*
X461944Y694102D01*
X463278Y693547D01*
X463944Y692436D01*
X463944Y691325D01*
X463278Y690214D01*
X461944Y689658D01*
X460611Y689658D01*
X459278Y690214D01*
X458611Y691325D01*
G54D11*
X438630Y689658D02*
X433296Y689658D01*
X433296Y690214D01*
X433963Y691325D01*
X437963Y694658D01*
X438629Y695769D01*
X438630Y696880D01*
X437963Y697991D01*
X436630Y698547D01*
X435296Y698547D01*
X433963Y697991D01*
X433296Y696880D01*
G54D11*
X403867Y694102D02*
X406534Y694102D01*
X406533Y691325D01*
X405867Y690214D01*
X404534Y689658D01*
X403200Y689658D01*
X401867Y690214D01*
X401200Y691325D01*
X401200Y696880D01*
X401867Y697991D01*
X403200Y698547D01*
X404534Y698547D01*
X405867Y697991D01*
X406533Y696880D01*
G54D11*
X409644Y689658D02*
X409644Y698547D01*
X414978Y689658D01*
X414977Y698547D01*
G54D11*
X418088Y689658D02*
X418088Y698547D01*
X421422Y698547D01*
X422755Y697991D01*
X423422Y696880D01*
X423422Y691325D01*
X422755Y690214D01*
X421421Y689658D01*
X418088Y689658D01*
G54D11*
X378558Y694102D02*
X380558Y692991D01*
X381225Y691880D01*
X381225Y689658D01*
G54D11*
X375891Y689658D02*
X375891Y698547D01*
X379224Y698547D01*
X380558Y697991D01*
X381224Y696880D01*
X381224Y695769D01*
X380558Y694658D01*
X379224Y694102D01*
X375891Y694102D01*
G54D11*
X384335Y691325D02*
X385002Y690214D01*
X386335Y689658D01*
X387668Y689658D01*
X389002Y690214D01*
X389668Y691325D01*
X389668Y692436D01*
X389002Y693547D01*
X387668Y694102D01*
X386335Y694102D01*
X385002Y694658D01*
X384335Y695769D01*
X384335Y696880D01*
X385002Y697991D01*
X386335Y698547D01*
X387668Y698547D01*
X389002Y697991D01*
X389668Y696880D01*
G54D11*
X395446Y689658D02*
X395446Y698547D01*
G54D11*
X392779Y698547D02*
X398112Y698547D01*
G54D11*
X356724Y694097D02*
X358724Y692986D01*
X359390Y691875D01*
X359390Y689653D01*
G54D11*
X354057Y689653D02*
X354057Y698542D01*
X357390Y698542D01*
X358724Y697986D01*
X359390Y696875D01*
X359390Y695764D01*
X358724Y694653D01*
X357390Y694097D01*
X354057Y694098D01*
G54D11*
X362501Y698542D02*
X369168Y689653D01*
G54D11*
X362501Y689653D02*
X369168Y698542D01*
G54D11*
X331233Y689653D02*
X331233Y698542D01*
G54D11*
X328566Y698542D02*
X333900Y698542D01*
G54D11*
X337010Y698542D02*
X343677Y689653D01*
G54D11*
X337010Y689653D02*
X343677Y698542D01*
G54D11*
X687512Y806339D02*
X690845Y809672D01*
X690845Y800783D01*
G54D11*
X693956Y808005D02*
X694623Y809116D01*
X695956Y809672D01*
X697290Y809672D01*
X698623Y809116D01*
X699290Y808005D01*
X699290Y806894D01*
X698623Y805783D01*
X697290Y805228D01*
X698623Y804672D01*
X699290Y803561D01*
X699290Y802450D01*
X698623Y801339D01*
X697290Y800783D01*
X695956Y800783D01*
X694623Y801339D01*
X693956Y802450D01*
G54D11*
X653781Y808005D02*
X654448Y809116D01*
X655781Y809672D01*
X657114Y809672D01*
X658448Y809116D01*
X659114Y808005D01*
X659114Y806894D01*
X658448Y805783D01*
X657114Y805228D01*
X658448Y804672D01*
X659114Y803561D01*
X659114Y802450D01*
X658448Y801339D01*
X657114Y800783D01*
X655781Y800783D01*
X654448Y801339D01*
X653781Y802450D01*
G54D11*
X662225Y809672D02*
X665558Y800783D01*
X668892Y809672D01*
G54D11*
X672003Y808005D02*
X672670Y809116D01*
X674003Y809672D01*
X675336Y809672D01*
X676670Y809116D01*
X677336Y808005D01*
X677336Y806894D01*
X676670Y805783D01*
X675336Y805228D01*
X676670Y804672D01*
X677336Y803561D01*
X677336Y802450D01*
X676670Y801339D01*
X675336Y800783D01*
X674003Y800783D01*
X672670Y801339D01*
X672003Y802450D01*
G54D11*
X630716Y805228D02*
X632716Y804116D01*
X633382Y803005D01*
X633382Y800783D01*
G54D11*
X628049Y800783D02*
X628049Y809672D01*
X631382Y809672D01*
X632716Y809116D01*
X633382Y808005D01*
X633382Y806894D01*
X632716Y805783D01*
X631382Y805228D01*
X628049Y805228D01*
G54D11*
X641160Y800783D02*
X636493Y800783D01*
X636493Y809672D01*
X641160Y809672D01*
G54D11*
X636493Y805228D02*
X641160Y805228D01*
G54D11*
X644271Y800783D02*
X644271Y809672D01*
X648938Y809672D01*
G54D11*
X644271Y805228D02*
X648938Y805228D01*
G54D11*
X607958Y800783D02*
X611291Y809672D01*
X614625Y800783D01*
G54D11*
X609292Y804116D02*
X613292Y804116D01*
G54D11*
X623070Y808005D02*
X623070Y802450D01*
X622403Y801339D01*
X621070Y800783D01*
X619736Y800783D01*
X618403Y801339D01*
X617736Y802450D01*
X617736Y808005D01*
X618403Y809116D01*
X619736Y809672D01*
X621070Y809672D01*
X622403Y809116D01*
X623070Y808005D01*
G54D11*
X584558Y800783D02*
X587892Y809672D01*
X591225Y800783D01*
G54D11*
X585892Y804116D02*
X589892Y804116D01*
G54D11*
X594336Y806339D02*
X597670Y809672D01*
X597670Y800783D01*
G54D11*
X557158Y800783D02*
X560492Y809672D01*
X563825Y800783D01*
G54D11*
X558492Y804116D02*
X562491Y804116D01*
G54D11*
X572270Y800783D02*
X566936Y800783D01*
X566936Y801339D01*
X567603Y802450D01*
X571603Y805783D01*
X572270Y806894D01*
X572269Y808005D01*
X571603Y809116D01*
X570269Y809672D01*
X568936Y809672D01*
X567603Y809116D01*
X566936Y808005D01*
G54D11*
X531758Y800783D02*
X535092Y809672D01*
X538425Y800783D01*
G54D11*
X533092Y804116D02*
X537092Y804116D01*
G54D11*
X541536Y808005D02*
X542203Y809116D01*
X543536Y809672D01*
X544870Y809672D01*
X546203Y809116D01*
X546870Y808005D01*
X546870Y806894D01*
X546203Y805783D01*
X544870Y805228D01*
X546203Y804672D01*
X546870Y803561D01*
X546870Y802450D01*
X546203Y801339D01*
X544870Y800783D01*
X543536Y800783D01*
X542203Y801339D01*
X541536Y802450D01*
G54D11*
X506449Y800779D02*
X509782Y809667D01*
X513116Y800779D01*
G54D11*
X507782Y804112D02*
X511782Y804112D01*
G54D11*
X520227Y800779D02*
X520227Y809667D01*
X516227Y804112D01*
X516227Y803001D01*
X521560Y803001D01*
G54D11*
X480958Y800783D02*
X484291Y809672D01*
X487625Y800783D01*
G54D11*
X482292Y804116D02*
X486292Y804116D01*
G54D11*
X496069Y809672D02*
X490736Y809672D01*
X490736Y805783D01*
X491403Y805783D01*
X492736Y806339D01*
X494070Y806339D01*
X495403Y805783D01*
X496070Y804672D01*
X496070Y802450D01*
X495403Y801339D01*
X494070Y800783D01*
X492736Y800783D01*
X491403Y801339D01*
X490736Y802450D01*
G54D11*
X455558Y800783D02*
X458891Y809672D01*
X462225Y800783D01*
G54D11*
X456891Y804116D02*
X460892Y804116D01*
G54D11*
X470670Y808005D02*
X470003Y809116D01*
X468670Y809672D01*
X467336Y809672D01*
X466003Y809116D01*
X465336Y808005D01*
X465336Y805228D01*
X465336Y804672D01*
X467336Y805783D01*
X468670Y805783D01*
X470003Y805228D01*
X470670Y804116D01*
X470669Y802450D01*
X470003Y801339D01*
X468669Y800783D01*
X467336Y800783D01*
X466003Y801339D01*
X465336Y802450D01*
X465336Y805228D01*
G54D11*
X430243Y800775D02*
X433576Y809663D01*
X436910Y800775D01*
G54D11*
X431576Y804108D02*
X435576Y804108D01*
G54D11*
X440021Y809663D02*
X445354Y809663D01*
X444688Y808552D01*
X443354Y806886D01*
X442021Y804663D01*
X441354Y802997D01*
X441354Y800775D01*
G54D11*
X410180Y809672D02*
X404846Y809672D01*
X404846Y805783D01*
X405513Y805783D01*
X406846Y806339D01*
X408180Y806339D01*
X409513Y805783D01*
X410179Y804672D01*
X410180Y802450D01*
X409513Y801339D01*
X408180Y800783D01*
X406846Y800783D01*
X405513Y801339D01*
X404846Y802450D01*
G54D11*
X413290Y809672D02*
X416624Y800783D01*
X419957Y809672D01*
G54D11*
X378558Y805228D02*
X380558Y804116D01*
X381225Y803005D01*
X381225Y800783D01*
G54D11*
X375891Y800783D02*
X375891Y809672D01*
X379224Y809672D01*
X380558Y809116D01*
X381224Y808005D01*
X381224Y806894D01*
X380558Y805783D01*
X379224Y805228D01*
X375891Y805228D01*
G54D11*
X384335Y802450D02*
X385002Y801339D01*
X386335Y800783D01*
X387668Y800783D01*
X389002Y801339D01*
X389668Y802450D01*
X389668Y803561D01*
X389002Y804672D01*
X387668Y805228D01*
X386335Y805227D01*
X385002Y805783D01*
X384335Y806894D01*
X384335Y808005D01*
X385002Y809116D01*
X386335Y809672D01*
X387668Y809672D01*
X389002Y809116D01*
X389668Y808005D01*
G54D11*
X395446Y800783D02*
X395446Y809672D01*
G54D11*
X392779Y809672D02*
X398112Y809672D01*
G54D11*
X353067Y805228D02*
X355734Y805228D01*
X355733Y802450D01*
X355067Y801339D01*
X353734Y800783D01*
X352400Y800783D01*
X351067Y801339D01*
X350400Y802450D01*
X350400Y808005D01*
X351067Y809116D01*
X352400Y809672D01*
X353734Y809672D01*
X355067Y809116D01*
X355734Y808005D01*
G54D11*
X358844Y800783D02*
X358844Y809672D01*
X364177Y800783D01*
X364177Y809672D01*
G54D11*
X367288Y800783D02*
X367288Y809672D01*
X370622Y809672D01*
X371955Y809116D01*
X372622Y808005D01*
X372621Y802450D01*
X371955Y801339D01*
X370621Y800783D01*
X367288Y800783D01*
G54D11*
X322487Y809167D02*
X325820Y800278D01*
X329154Y809167D01*
G54D11*
X332265Y800278D02*
X337598Y800278D01*
G54D11*
X334932Y800278D02*
X334932Y809167D01*
G54D11*
X332265Y809167D02*
X337598Y809167D01*
G54D11*
X340709Y800278D02*
X340709Y809167D01*
X346042Y800278D01*
X346042Y809167D01*
G54D11*
X613118Y691618D02*
X613784Y690507D01*
X615118Y689952D01*
X616451Y689952D01*
X617784Y690507D01*
X618451Y691618D01*
X618451Y694396D01*
X618451Y694952D01*
X616451Y693840D01*
X615118Y693840D01*
X613784Y694396D01*
X613118Y695507D01*
X613118Y697174D01*
X613784Y698285D01*
X615118Y698840D01*
X616451Y698840D01*
X617784Y698285D01*
X618451Y697174D01*
X618451Y694396D01*
G54D11*
X635564Y695352D02*
X638897Y698685D01*
X638897Y689797D01*
G54D11*
X647341Y697019D02*
X647341Y691463D01*
X646674Y690352D01*
X645341Y689797D01*
X644008Y689797D01*
X642674Y690352D01*
X642008Y691463D01*
X642008Y697019D01*
X642674Y698130D01*
X644008Y698685D01*
X645341Y698685D01*
X646674Y698130D01*
X647341Y697019D01*
G54D10*
X633473Y719209D02*
X599269Y719168D01*
X599286Y766732D01*
X633529Y766731D01*
X633467Y719224D01*
X627426Y725221D02*
G54D12*
D03*
G54D13*
X309658Y544858D02*
X309658Y544858D01*
G54D10*
X284258Y519458D02*
X284258Y494058D01*
G54D10*
X274425Y494033D02*
X284258Y494058D01*
G54D10*
X273858Y595658D02*
X284258Y595658D01*
G54D10*
X284258Y595658D02*
X284258Y570258D01*
X284258Y570258D02*
G54D14*
D03*
X284258Y519458D02*
G54D14*
D03*
X309658Y544858D02*
G54D14*
D03*
G54D15*
X284258Y519458D02*
X309658Y544858D01*
G54D10*
X245058Y609058D02*
X399125Y608820D01*
G54D10*
X399125Y608820D02*
X400792Y481114D01*
G54D10*
X244875Y481325D02*
X399124Y481353D01*
G54D10*
X245058Y609058D02*
X244875Y481325D01*
G54D15*
X340658Y524258D02*
X349458Y533058D01*
G54D15*
X340758Y515858D02*
X349558Y507058D01*
G54D10*
X340758Y523658D02*
X340758Y523658D01*
G54D10*
X340758Y523658D02*
X340758Y515658D01*
G54D10*
X350058Y532458D02*
X360258Y532458D01*
G54D15*
X340658Y575058D02*
X349458Y583858D01*
G54D15*
X340758Y566658D02*
X349558Y557858D01*
G54D10*
X340758Y574458D02*
X340758Y574458D01*
G54D10*
X340758Y574458D02*
X340758Y566458D01*
G54D10*
X350058Y557858D02*
X360258Y557858D01*
G54D10*
X350058Y557858D02*
X360258Y557858D01*
G54D15*
X340658Y549658D02*
X349458Y558458D01*
G54D15*
X340758Y541258D02*
X349558Y532458D01*
G54D10*
X340758Y549058D02*
X340758Y549058D01*
G54D10*
X340758Y549058D02*
X340758Y541058D01*
G54D10*
X350058Y532458D02*
X360258Y532458D01*
G54D10*
X350058Y557858D02*
X360258Y557858D01*
G54D10*
X350058Y532458D02*
X360258Y532458D01*
G54D10*
X309658Y544858D02*
X366808Y544858D01*
G54D10*
X438944Y587354D02*
X425944Y587354D01*
X425944Y597354D01*
G54D10*
X425944Y609354D02*
X425944Y619354D01*
X438944Y619354D01*
G54D10*
X438944Y607354D02*
X438944Y599354D01*
G54D10*
X453892Y582053D02*
X453818Y624640D01*
X473264Y624618D01*
X473265Y582051D01*
X453875Y582065D01*
G54D10*
X458669Y594574D02*
X458669Y612221D01*
X468380Y612221D01*
X468380Y594574D01*
X458669Y594574D01*
G54D10*
X479292Y582053D02*
X479218Y624640D01*
X498664Y624618D01*
X498665Y582051D01*
X479275Y582065D01*
G54D10*
X484069Y594574D02*
X484069Y612221D01*
X493780Y612221D01*
X493780Y594574D01*
X484069Y594574D01*
G54D16*
X673230Y536428D02*
X673210Y557115D01*
X663709Y557115D01*
X663709Y566515D01*
X673209Y566515D01*
X673183Y587215D01*
X597009Y587220D01*
X597003Y536409D01*
X673228Y536422D01*
G36*
X673183Y587215D02*
X673183Y574515D01*
X660383Y587215D01*
X673183Y587215D01*
G37*
G54D13*
X673183Y587215D02*
X673183Y574515D01*
X660383Y587215D01*
X673183Y587215D01*
G54D16*
X660509Y587215D02*
X660509Y571340D01*
X635109Y571340D01*
X635109Y587215D01*
G36*
X641459Y571340D02*
X650984Y568165D01*
X650984Y574515D01*
X641459Y571340D01*
G37*
G54D16*
X641459Y571340D02*
X650984Y568165D01*
X650984Y574515D01*
X641459Y571340D01*
G54D16*
X641459Y568165D02*
X641459Y574515D01*
G36*
X638284Y542765D02*
X631934Y536415D01*
X631934Y549115D01*
X638284Y542765D01*
G37*
G54D16*
X638284Y542765D02*
X631934Y536415D01*
X631934Y549115D01*
X638284Y542765D01*
G36*
X638284Y545940D02*
X631934Y552290D01*
X638284Y558640D01*
X638284Y545940D01*
G37*
G54D16*
X638284Y545940D02*
X631934Y552290D01*
X638284Y558640D01*
X638284Y545940D01*
G54D16*
X628759Y536415D02*
X628759Y558640D01*
G54D16*
X641459Y536415D02*
X641459Y558640D01*
G54D16*
X628759Y547527D02*
X609709Y547527D01*
X609709Y536415D01*
G54D16*
X641459Y547527D02*
X660510Y547527D01*
X660509Y536415D01*
G54D11*
X594628Y533240D02*
X585739Y533240D01*
X591295Y536573D01*
X585740Y539907D01*
X594628Y539907D01*
G54D11*
X587406Y548352D02*
X592962Y548351D01*
X594073Y547685D01*
X594628Y546351D01*
X594628Y545018D01*
X594073Y543685D01*
X592962Y543018D01*
X587406Y543018D01*
X586295Y543685D01*
X585740Y545018D01*
X585740Y546351D01*
X586295Y547685D01*
X587406Y548352D01*
G54D11*
X592962Y556795D02*
X594073Y556129D01*
X594628Y554795D01*
X594628Y553462D01*
X594073Y552129D01*
X592962Y551462D01*
X587406Y551462D01*
X586295Y552129D01*
X585739Y553462D01*
X585739Y554795D01*
X586295Y556129D01*
X587406Y556795D01*
G54D11*
X587406Y559906D02*
X586295Y560573D01*
X585740Y561906D01*
X585739Y563240D01*
X586295Y564573D01*
X587406Y565240D01*
X588517Y565239D01*
X589628Y564573D01*
X590184Y563239D01*
X590740Y564573D01*
X591851Y565239D01*
X592962Y565239D01*
X594073Y564573D01*
X594628Y563239D01*
X594628Y561906D01*
X594073Y560573D01*
X592962Y559906D01*
G54D11*
X587406Y573683D02*
X592962Y573683D01*
X594073Y573017D01*
X594628Y571684D01*
X594628Y570350D01*
X594073Y569017D01*
X592962Y568350D01*
X587406Y568350D01*
X586295Y569017D01*
X585739Y570350D01*
X585739Y571684D01*
X586295Y573017D01*
X587406Y573683D01*
G54D11*
X594628Y580794D02*
X585740Y580794D01*
X591295Y576794D01*
X592406Y576794D01*
X592406Y582127D01*
G54D11*
X587406Y585238D02*
X586295Y585905D01*
X585740Y587238D01*
X585739Y588572D01*
X586295Y589905D01*
X587406Y590572D01*
X588517Y590572D01*
X589628Y589905D01*
X590184Y588572D01*
X590740Y589905D01*
X591850Y590572D01*
X592962Y590572D01*
X594073Y589905D01*
X594628Y588572D01*
X594628Y587238D01*
X594073Y585905D01*
X592962Y585238D01*
G54D10*
X622398Y642712D02*
X666985Y642787D01*
X666963Y623340D01*
X622313Y623299D01*
X622315Y642708D01*
G54D10*
X636919Y637936D02*
X654566Y637936D01*
X654566Y628225D01*
X636919Y628225D01*
X636919Y637936D01*
G54D10*
X473247Y487272D02*
X513947Y487272D01*
X513947Y573672D01*
X473247Y573672D01*
X473247Y487272D01*
G54D10*
X478347Y487272D02*
X478347Y573672D01*
G54D11*
X484529Y473004D02*
X484529Y481892D01*
X487862Y481893D01*
X489196Y481337D01*
X489862Y480226D01*
X489862Y479115D01*
X489196Y478004D01*
X487862Y477448D01*
X489196Y476892D01*
X489863Y475782D01*
X489862Y474670D01*
X489196Y473559D01*
X487863Y473004D01*
X484529Y473004D01*
G54D11*
X484529Y477448D02*
X487862Y477448D01*
G54D11*
X495640Y473004D02*
X495640Y481893D01*
G54D11*
X492973Y481892D02*
X498307Y481892D01*
G54D11*
X501417Y473004D02*
X504750Y481892D01*
X508084Y473004D01*
G54D11*
X502750Y476337D02*
X506751Y476337D01*
G54D11*
X511195Y478559D02*
X514529Y481893D01*
X514528Y473004D01*
G54D11*
X522973Y480226D02*
X522306Y481337D01*
X520973Y481892D01*
X519640Y481892D01*
X518306Y481337D01*
X517639Y480226D01*
X517639Y477448D01*
X517639Y476893D01*
X519639Y478004D01*
X520973Y478004D01*
X522306Y477448D01*
X522973Y476337D01*
X522973Y474670D01*
X522306Y473560D01*
X520973Y473004D01*
X519639Y473004D01*
X518306Y473559D01*
X517639Y474670D01*
X517639Y477448D01*
G54D10*
X517367Y534756D02*
X517293Y577343D01*
X536738Y577321D01*
X536738Y534754D01*
X517349Y534768D01*
G54D10*
X522143Y547277D02*
X522143Y564924D01*
X531854Y564924D01*
X531854Y547277D01*
X522143Y547277D01*
G54D10*
X561078Y561850D02*
X561152Y519263D01*
X541706Y519285D01*
X541705Y561852D01*
X561096Y561837D01*
G54D10*
X556302Y549328D02*
X556302Y531681D01*
X546590Y531681D01*
X546590Y549328D01*
X556302Y549328D01*
G54D10*
X152739Y620258D02*
X203539Y620258D01*
X203539Y467858D01*
X152739Y467858D01*
X152739Y620258D01*
G54D10*
X140039Y620258D02*
X216239Y620258D01*
X216239Y467858D01*
X140039Y467858D01*
X140039Y620258D01*
G54D10*
X768892Y609650D02*
X870492Y609650D01*
X870492Y558850D01*
X768892Y558850D01*
X768892Y609650D01*
G54D10*
X768892Y622350D02*
X870492Y622350D01*
X870492Y546150D01*
X768892Y546150D01*
X768892Y622350D01*
G54D11*
X431978Y531390D02*
X431978Y526056D01*
X431422Y526056D01*
X430311Y526723D01*
X426978Y530723D01*
X425867Y531390D01*
X424756Y531390D01*
X423644Y530723D01*
X423089Y529390D01*
X423089Y528056D01*
X423644Y526723D01*
X424756Y526056D01*
G54D11*
X431978Y534500D02*
X423089Y534500D01*
X431978Y539834D01*
X423089Y539834D01*
G54D11*
X423089Y542944D02*
X423089Y548278D01*
X424200Y547611D01*
X425867Y546278D01*
X428089Y544944D01*
X429756Y544278D01*
X431978Y544278D01*
G54D11*
X424756Y556722D02*
X430311Y556722D01*
X431422Y556055D01*
X431978Y554722D01*
X431978Y553388D01*
X431422Y552055D01*
X430311Y551388D01*
X424756Y551388D01*
X423644Y552055D01*
X423089Y553388D01*
X423089Y554722D01*
X423644Y556055D01*
X424756Y556722D01*
G54D11*
X424756Y565166D02*
X430311Y565166D01*
X431422Y564499D01*
X431978Y563166D01*
X431978Y561832D01*
X431422Y560499D01*
X430311Y559832D01*
X424756Y559832D01*
X423644Y560499D01*
X423089Y561832D01*
X423089Y563166D01*
X423644Y564499D01*
X424756Y565166D01*
G54D11*
X431978Y573610D02*
X431978Y568276D01*
X431422Y568276D01*
X430311Y568943D01*
X426978Y572943D01*
X425867Y573610D01*
X424756Y573610D01*
X423644Y572943D01*
X423089Y571610D01*
X423089Y570276D01*
X423644Y568943D01*
X424756Y568276D01*
G54D11*
X455567Y636101D02*
X458901Y639434D01*
X458901Y630546D01*
G54D11*
X462011Y630546D02*
X462011Y639434D01*
G54D11*
X464011Y633879D02*
X466011Y630546D01*
G54D11*
X462011Y632768D02*
X466011Y635546D01*
G54D11*
X479065Y637100D02*
X482398Y640434D01*
X482398Y631545D01*
G54D11*
X490842Y638767D02*
X490842Y633211D01*
X490176Y632100D01*
X488842Y631545D01*
X487509Y631545D01*
X486176Y632100D01*
X485509Y633211D01*
X485509Y638767D01*
X486176Y639878D01*
X487509Y640434D01*
X488842Y640434D01*
X490176Y639878D01*
X490842Y638767D01*
G54D11*
X499286Y638767D02*
X499286Y633211D01*
X498620Y632100D01*
X497286Y631545D01*
X495953Y631545D01*
X494620Y632100D01*
X493953Y633211D01*
X493953Y638767D01*
X494620Y639878D01*
X495953Y640434D01*
X497286Y640434D01*
X498620Y639878D01*
X499286Y638767D01*
G54D11*
X545586Y573905D02*
X546253Y575016D01*
X547586Y575572D01*
X548920Y575572D01*
X550253Y575016D01*
X550920Y573905D01*
X550920Y572794D01*
X550253Y571683D01*
X548920Y571128D01*
X550253Y570572D01*
X550920Y569461D01*
X550920Y568350D01*
X550253Y567239D01*
X548920Y566683D01*
X547586Y566683D01*
X546253Y567239D01*
X545586Y568350D01*
G54D11*
X554030Y573905D02*
X554697Y575016D01*
X556030Y575572D01*
X557364Y575572D01*
X558697Y575016D01*
X559364Y573905D01*
X559364Y572794D01*
X558697Y571683D01*
X557364Y571128D01*
X558697Y570572D01*
X559364Y569461D01*
X559364Y568350D01*
X558697Y567239D01*
X557364Y566683D01*
X556030Y566683D01*
X554697Y567239D01*
X554030Y568350D01*
G54D11*
X567808Y573905D02*
X567808Y568350D01*
X567141Y567239D01*
X565808Y566683D01*
X564474Y566683D01*
X563141Y567239D01*
X562474Y568350D01*
X562474Y573905D01*
X563141Y575016D01*
X564474Y575572D01*
X565808Y575572D01*
X567141Y575016D01*
X567808Y573905D01*
G54D11*
X518099Y589612D02*
X518766Y590723D01*
X520099Y591279D01*
X521432Y591279D01*
X522766Y590723D01*
X523432Y589612D01*
X523432Y588501D01*
X522766Y587390D01*
X521432Y586834D01*
X522766Y586279D01*
X523432Y585168D01*
X523432Y584057D01*
X522766Y582946D01*
X521432Y582390D01*
X520099Y582390D01*
X518766Y582946D01*
X518099Y584057D01*
G54D11*
X526543Y589612D02*
X527210Y590723D01*
X528543Y591279D01*
X529876Y591279D01*
X531210Y590723D01*
X531876Y589612D01*
X531876Y588501D01*
X531210Y587390D01*
X529876Y586834D01*
X531210Y586279D01*
X531876Y585168D01*
X531876Y584057D01*
X531210Y582946D01*
X529876Y582390D01*
X528543Y582390D01*
X527210Y582946D01*
X526543Y584057D01*
G54D11*
X540320Y589612D02*
X540320Y584057D01*
X539654Y582946D01*
X538320Y582390D01*
X536987Y582390D01*
X535654Y582946D01*
X534987Y584057D01*
X534987Y589612D01*
X535654Y590723D01*
X536987Y591279D01*
X538320Y591279D01*
X539654Y590723D01*
X540320Y589612D01*
G54D11*
X262497Y515053D02*
X256211Y521338D01*
X266268Y518824D01*
X259983Y525110D01*
G54D11*
X267210Y526052D02*
X269410Y526681D01*
X270667Y526366D01*
X272239Y524795D01*
G54D11*
X268468Y521024D02*
X262182Y527309D01*
X264539Y529666D01*
X265875Y530216D01*
X267132Y529902D01*
X267918Y529116D01*
X268232Y527859D01*
X267682Y526524D01*
X265325Y524166D01*
G54D11*
X274438Y526995D02*
X268153Y533280D01*
X270510Y535637D01*
X271846Y536187D01*
X273103Y535873D01*
X273888Y535087D01*
X274203Y533830D01*
X273653Y532494D01*
X271296Y530137D01*
G54D11*
X277659Y535715D02*
X281431Y539486D01*
G54D11*
X282452Y542865D02*
X282452Y547579D01*
X288737Y541293D01*
G54D11*
X290151Y548993D02*
X289208Y548050D01*
X287872Y547500D01*
X286615Y547814D01*
X285830Y548600D01*
X285515Y549857D01*
X286065Y551192D01*
X287008Y552135D01*
X288344Y552685D01*
X289601Y552371D01*
X290387Y551585D01*
X290701Y550328D01*
X290151Y548993D01*
X291487Y549542D01*
X292744Y549228D01*
X293529Y548443D01*
X293844Y547186D01*
X293294Y545850D01*
X292351Y544907D01*
X291015Y544357D01*
X289758Y544671D01*
X288972Y545457D01*
X288658Y546714D01*
X289208Y548050D01*
G54D11*
X294158Y552214D02*
X297929Y555985D01*
G54D11*
X305471Y560384D02*
X305785Y559127D01*
X305235Y557792D01*
X304292Y556849D01*
X302957Y556299D01*
X301700Y556613D01*
X297771Y560541D01*
X297457Y561798D01*
X298007Y563134D01*
X298950Y564077D01*
X300286Y564627D01*
X301543Y564313D01*
G54D11*
X306099Y564155D02*
X309870Y567926D01*
G54D11*
X318591Y571147D02*
X314820Y567376D01*
X314427Y567769D01*
X314113Y569026D01*
X314584Y574211D01*
X314270Y575468D01*
X313484Y576254D01*
X312227Y576568D01*
X310891Y576018D01*
X309949Y575076D01*
X309399Y573740D01*
X309713Y572483D01*
G54D11*
X323619Y576175D02*
X317334Y582461D01*
X318434Y575704D01*
X319219Y574918D01*
X322990Y578690D01*
G54D11*
X326761Y579318D02*
X320476Y585603D01*
X322833Y587960D01*
X324169Y588510D01*
X325426Y588196D01*
X329354Y584267D01*
X329668Y583010D01*
X329118Y581675D01*
X326761Y579318D01*
G54D11*
X329982Y588038D02*
X333754Y591810D01*
G54D11*
X338703Y591259D02*
X332418Y597545D01*
G54D11*
X342474Y595031D02*
X336189Y601316D01*
G54D11*
X335560Y594402D02*
X339332Y598173D01*
G54D17*
X85312Y556882D02*
X85312Y564882D01*
X86145Y564882D01*
X87812Y563882D01*
X92812Y557882D01*
X94478Y556882D01*
X96145Y556882D01*
X97812Y557882D01*
X98645Y559882D01*
X98645Y561882D01*
X97812Y563882D01*
X96145Y564882D01*
G54D17*
X85312Y544215D02*
X85312Y552215D01*
X86145Y552215D01*
X87812Y551215D01*
X92812Y545215D01*
X94478Y544215D01*
X96145Y544215D01*
X97812Y545215D01*
X98645Y547215D01*
X98645Y549215D01*
X97812Y551215D01*
X96145Y552215D01*
G54D17*
X96145Y531548D02*
X87812Y531548D01*
X86145Y532548D01*
X85312Y534548D01*
X85312Y536548D01*
X86145Y538548D01*
X87812Y539548D01*
X96145Y539548D01*
X97812Y538548D01*
X98645Y536548D01*
X98645Y534548D01*
X97812Y532548D01*
X96145Y531548D01*
G54D17*
X98645Y526881D02*
X85312Y521881D01*
X98645Y516881D01*
G54D17*
X808236Y630016D02*
X800236Y630016D01*
X800236Y630849D01*
X801236Y632516D01*
X807236Y637516D01*
X808236Y639183D01*
X808236Y640849D01*
X807236Y642516D01*
X805236Y643349D01*
X803236Y643349D01*
X801236Y642516D01*
X800236Y640849D01*
G54D17*
X820903Y630016D02*
X812903Y630016D01*
X812903Y630849D01*
X813903Y632516D01*
X819903Y637516D01*
X820903Y639183D01*
X820903Y640849D01*
X819903Y642516D01*
X817903Y643349D01*
X815903Y643349D01*
X813903Y642516D01*
X812903Y640849D01*
G54D17*
X833570Y640849D02*
X833570Y632516D01*
X832570Y630849D01*
X830570Y630016D01*
X828570Y630016D01*
X826570Y630849D01*
X825570Y632516D01*
X825570Y640849D01*
X826570Y642516D01*
X828570Y643349D01*
X830570Y643349D01*
X832570Y642516D01*
X833570Y640849D01*
G54D17*
X838237Y643349D02*
X843237Y630016D01*
X848237Y643349D01*
G54D10*
X688348Y770636D02*
X688422Y728049D01*
X668976Y728071D01*
X668975Y770638D01*
X688365Y770624D01*
G54D10*
X678778Y758355D02*
X678778Y750355D01*
X683778Y750355D01*
X673778Y750355D01*
G54D10*
X683667Y747634D02*
X673667Y747634D01*
G54D10*
X678778Y747467D02*
X678778Y740355D01*
G54D10*
X691813Y913569D02*
X704813Y913569D01*
X704813Y903569D01*
G54D10*
X704813Y891569D02*
X704813Y881569D01*
X691813Y881569D01*
G54D10*
X691813Y893569D02*
X691813Y901569D01*
G54D10*
X676865Y918870D02*
X676939Y876283D01*
X657493Y876305D01*
X657492Y918872D01*
X676883Y918858D01*
G54D10*
X672089Y906349D02*
X672089Y888701D01*
X662377Y888701D01*
X662377Y906349D01*
X672089Y906349D01*
G54D10*
X651465Y918870D02*
X651539Y876283D01*
X632093Y876305D01*
X632092Y918872D01*
X651483Y918858D01*
G54D10*
X646689Y906349D02*
X646689Y888701D01*
X636977Y888701D01*
X636977Y906349D01*
X646689Y906349D01*
G54D10*
X428856Y865392D02*
X373356Y865392D01*
G54D10*
X428856Y930392D02*
X373356Y930392D01*
X373356Y865392D01*
G54D10*
X432356Y926892D02*
X428856Y930392D01*
G54D10*
X432356Y868892D02*
X428856Y865392D01*
G54D10*
X430856Y928392D02*
X373356Y928392D01*
G54D10*
X430856Y867392D02*
X373356Y867392D01*
G54D10*
X373356Y901892D02*
X364356Y901892D01*
X364356Y893892D01*
X373356Y893892D01*
G54D10*
X373256Y924692D02*
X363056Y924692D01*
X363056Y925692D01*
X363056Y915692D01*
X363056Y916692D01*
X373256Y916692D01*
G54D10*
X373456Y879092D02*
X363056Y879092D01*
X363056Y880092D01*
X363056Y870092D01*
X363056Y871092D01*
X373356Y871092D01*
G54D10*
X305167Y912011D02*
X305241Y869424D01*
X285795Y869446D01*
X285794Y912012D01*
X305185Y911998D01*
G54D10*
X295597Y899730D02*
X295597Y891730D01*
X300597Y891730D01*
X290597Y891730D01*
G54D10*
X300486Y889008D02*
X290486Y889008D01*
G54D10*
X295598Y888842D02*
X295597Y881730D01*
G54D10*
X332702Y912024D02*
X332776Y869437D01*
X313330Y869459D01*
X313330Y912026D01*
X332720Y912012D01*
G54D10*
X323132Y899743D02*
X323132Y891743D01*
X328132Y891743D01*
X318132Y891743D01*
G54D10*
X328021Y889022D02*
X318021Y889022D01*
G54D10*
X323133Y888855D02*
X323132Y881743D01*
G54D10*
G75*
G01X276786Y888974D02*
G03X276786Y888974I-28600J0D01*
G01*
G54D10*
X260886Y873074D02*
X260886Y866774D01*
G54D10*
X257686Y869874D02*
X264086Y869874D01*
G54D11*
X396785Y945545D02*
X402119Y945545D01*
X401452Y944433D01*
X400119Y942767D01*
X398785Y940545D01*
X398119Y938878D01*
X398119Y936656D01*
G54D11*
X408563Y941100D02*
X407229Y941100D01*
X405896Y941656D01*
X405229Y942767D01*
X405229Y943878D01*
X405896Y944989D01*
X407229Y945545D01*
X408563Y945545D01*
X409896Y944989D01*
X410563Y943878D01*
X410563Y942767D01*
X409896Y941656D01*
X408563Y941100D01*
X409896Y940545D01*
X410563Y939434D01*
X410563Y938322D01*
X409896Y937211D01*
X408563Y936656D01*
X407229Y936656D01*
X405896Y937211D01*
X405229Y938322D01*
X405229Y939434D01*
X405896Y940545D01*
X407229Y941100D01*
G54D11*
X413673Y936656D02*
X413673Y945545D01*
X417007Y939989D01*
X420340Y945545D01*
X420340Y936656D01*
G54D11*
X428785Y943878D02*
X428785Y938322D01*
X428118Y937211D01*
X426785Y936656D01*
X425451Y936656D01*
X424118Y937211D01*
X423451Y938322D01*
X423451Y943878D01*
X424118Y944989D01*
X425451Y945545D01*
X426785Y945545D01*
X428118Y944989D01*
X428785Y943878D01*
G54D11*
X437229Y945545D02*
X431895Y945545D01*
X431895Y941656D01*
X432562Y941656D01*
X433895Y942211D01*
X435229Y942211D01*
X436562Y941656D01*
X437229Y940545D01*
X437229Y938322D01*
X436562Y937211D01*
X435229Y936656D01*
X433895Y936656D01*
X432562Y937211D01*
X431895Y938322D01*
G54D11*
X286545Y935629D02*
X286545Y930073D01*
X285879Y928962D01*
X284545Y928406D01*
X283212Y928406D01*
X281879Y928962D01*
X281212Y930073D01*
X281212Y935629D01*
X281879Y936740D01*
X283212Y937295D01*
X284545Y937295D01*
X285879Y936740D01*
X286545Y935629D01*
G54D11*
X290189Y928406D02*
X289656Y928406D01*
X289656Y928851D01*
X290189Y928851D01*
X290189Y928406D01*
X289656Y928406D01*
G54D11*
X293300Y935629D02*
X293967Y936740D01*
X295300Y937295D01*
X296633Y937295D01*
X297967Y936740D01*
X298633Y935629D01*
X298633Y934517D01*
X297967Y933406D01*
X296633Y932851D01*
X297967Y932295D01*
X298633Y931184D01*
X298633Y930073D01*
X297967Y928962D01*
X296633Y928406D01*
X295300Y928406D01*
X293967Y928962D01*
X293300Y930073D01*
G54D11*
X301744Y935629D02*
X302411Y936740D01*
X303744Y937295D01*
X305077Y937295D01*
X306411Y936740D01*
X307077Y935629D01*
X307077Y934517D01*
X306411Y933406D01*
X305077Y932851D01*
X306411Y932295D01*
X307077Y931184D01*
X307077Y930073D01*
X306411Y928962D01*
X305077Y928406D01*
X303744Y928406D01*
X302411Y928962D01*
X301744Y930073D01*
G54D11*
X321926Y923478D02*
X321926Y917922D01*
X321259Y916811D01*
X319926Y916256D01*
X318592Y916256D01*
X317259Y916811D01*
X316592Y917922D01*
X316592Y923478D01*
X317259Y924589D01*
X318592Y925145D01*
X319926Y925145D01*
X321259Y924589D01*
X321926Y923478D01*
G54D11*
X325570Y916256D02*
X325036Y916256D01*
X325036Y916700D01*
X325570Y916700D01*
X325570Y916256D01*
X325036Y916256D01*
G54D11*
X328680Y921811D02*
X332014Y925145D01*
X332014Y916256D01*
G54D11*
X213208Y929550D02*
X216541Y932884D01*
X216541Y923995D01*
G54D11*
X224986Y931217D02*
X224319Y932328D01*
X222986Y932884D01*
X221652Y932884D01*
X220319Y932328D01*
X219652Y931217D01*
X219652Y928439D01*
X219652Y927884D01*
X221652Y928995D01*
X222986Y928995D01*
X224319Y928439D01*
X224986Y927328D01*
X224986Y925662D01*
X224319Y924550D01*
X222986Y923995D01*
X221652Y923995D01*
X220319Y924550D01*
X219652Y925662D01*
X219652Y928439D01*
G54D11*
X228096Y928995D02*
X230763Y923995D01*
X233430Y928995D01*
G54D11*
X239784Y929550D02*
X243118Y932884D01*
X243118Y923995D01*
G54D11*
X251562Y931217D02*
X251562Y925662D01*
X250895Y924550D01*
X249562Y923995D01*
X248228Y923995D01*
X246895Y924550D01*
X246228Y925662D01*
X246228Y931217D01*
X246895Y932328D01*
X248228Y932884D01*
X249562Y932884D01*
X250895Y932328D01*
X251562Y931217D01*
G54D11*
X260006Y931217D02*
X260006Y925662D01*
X259339Y924550D01*
X258006Y923995D01*
X256672Y923995D01*
X255339Y924550D01*
X254672Y925662D01*
X254672Y931217D01*
X255339Y932328D01*
X256672Y932884D01*
X258006Y932884D01*
X259339Y932328D01*
X260006Y931217D01*
G54D11*
X263116Y928995D02*
X263116Y921773D01*
G54D11*
X267116Y928995D02*
X267116Y923995D01*
G54D11*
X267116Y925106D02*
X266450Y924217D01*
X265116Y923995D01*
X263783Y924217D01*
X263116Y925106D01*
X263116Y928995D01*
G54D11*
X269650Y923995D02*
X269650Y932884D01*
X274450Y932884D01*
G54D11*
X269650Y928439D02*
X274450Y928439D01*
G54D11*
X287459Y924139D02*
X282126Y924139D01*
X282126Y920250D01*
X282792Y920250D01*
X284126Y920805D01*
X285459Y920805D01*
X286792Y920250D01*
X287459Y919139D01*
X287459Y916916D01*
X286792Y915805D01*
X285459Y915250D01*
X284126Y915250D01*
X282792Y915805D01*
X282126Y916916D01*
G54D11*
X295903Y922472D02*
X295903Y916916D01*
X295236Y915805D01*
X293903Y915250D01*
X292570Y915250D01*
X291236Y915805D01*
X290570Y916916D01*
X290570Y922472D01*
X291236Y923583D01*
X292570Y924139D01*
X293903Y924139D01*
X295236Y923583D01*
X295903Y922472D01*
G54D11*
X299014Y924139D02*
X302347Y915250D01*
X305680Y924139D01*
G54D10*
X108492Y914450D02*
X210092Y914450D01*
X210092Y863650D01*
X108492Y863650D01*
X108492Y914450D01*
G54D10*
X108492Y927150D02*
X210092Y927150D01*
X210092Y850950D01*
X108492Y850950D01*
X108492Y927150D01*
G54D10*
X717936Y704603D02*
X675349Y704528D01*
X675371Y723975D01*
X717938Y723976D01*
X717923Y704585D01*
G54D10*
X705414Y709379D02*
X687767Y709379D01*
X687767Y719091D01*
X705414Y719090D01*
X705414Y709379D01*
G54D11*
X725561Y703622D02*
X722228Y706955D01*
X731117Y706955D01*
G54D11*
X723895Y715399D02*
X729450Y715399D01*
X730561Y714733D01*
X731117Y713399D01*
X731117Y712066D01*
X730561Y710733D01*
X729450Y710066D01*
X723895Y710066D01*
X722784Y710733D01*
X722228Y712066D01*
X722228Y713399D01*
X722784Y714733D01*
X723895Y715399D01*
G54D11*
X731117Y718510D02*
X722228Y718510D01*
G54D11*
X727784Y720510D02*
X731117Y722510D01*
G54D11*
X728895Y718510D02*
X726117Y722510D01*
G54D11*
X675685Y781267D02*
X675685Y775712D01*
X675019Y774601D01*
X673685Y774045D01*
X672352Y774045D01*
X671019Y774601D01*
X670352Y775712D01*
X670352Y781267D01*
X671019Y782378D01*
X672352Y782934D01*
X673685Y782934D01*
X675019Y782378D01*
X675685Y781267D01*
G54D11*
X679329Y774045D02*
X678796Y774045D01*
X678796Y774489D01*
X679329Y774489D01*
X679329Y774045D01*
X678796Y774045D01*
G54D11*
X682440Y779601D02*
X685773Y782934D01*
X685773Y774045D01*
G54D11*
X585817Y773130D02*
X585817Y782019D01*
X589150Y776463D01*
X592484Y782019D01*
X592484Y773130D01*
G54D11*
X595595Y773130D02*
X598928Y782019D01*
X602262Y773130D01*
G54D11*
X596928Y776463D02*
X600928Y776463D01*
G54D11*
X605373Y782019D02*
X612040Y773130D01*
G54D11*
X605373Y773130D02*
X612040Y782019D01*
G54D11*
X620484Y780352D02*
X619818Y781463D01*
X618484Y782019D01*
X617151Y782019D01*
X615818Y781463D01*
X615151Y780352D01*
X615151Y777574D01*
X615151Y777019D01*
X617151Y778130D01*
X618484Y778130D01*
X619818Y777574D01*
X620484Y776463D01*
X620484Y774797D01*
X619818Y773686D01*
X618484Y773130D01*
X617151Y773130D01*
X615818Y773686D01*
X615151Y774797D01*
X615151Y777574D01*
G54D11*
X628928Y780352D02*
X628262Y781463D01*
X626928Y782019D01*
X625595Y782019D01*
X624262Y781463D01*
X623595Y780352D01*
X623595Y777574D01*
X623595Y777019D01*
X625595Y778130D01*
X626928Y778130D01*
X628262Y777574D01*
X628928Y776463D01*
X628928Y774797D01*
X628262Y773686D01*
X626928Y773130D01*
X625595Y773130D01*
X624262Y773686D01*
X623595Y774797D01*
X623595Y777574D01*
G54D11*
X632039Y782019D02*
X637372Y782019D01*
X636706Y780908D01*
X635372Y779241D01*
X634039Y777019D01*
X633372Y775352D01*
X633372Y773130D01*
G54D11*
X645816Y782019D02*
X640483Y782019D01*
X640483Y778130D01*
X641150Y778130D01*
X642483Y778686D01*
X643816Y778686D01*
X645150Y778130D01*
X645816Y777019D01*
X645816Y774797D01*
X645150Y773686D01*
X643816Y773130D01*
X642483Y773130D01*
X641150Y773686D01*
X640483Y774797D01*
G54D11*
X639698Y924091D02*
X636365Y927424D01*
X645254Y927424D01*
G54D11*
X638032Y935868D02*
X643587Y935868D01*
X644698Y935202D01*
X645254Y933868D01*
X645254Y932535D01*
X644698Y931202D01*
X643587Y930535D01*
X638032Y930535D01*
X636921Y931202D01*
X636365Y932535D01*
X636365Y933868D01*
X636921Y935202D01*
X638032Y935868D01*
G54D11*
X638032Y944312D02*
X643587Y944312D01*
X644698Y943646D01*
X645254Y942312D01*
X645254Y940979D01*
X644698Y939646D01*
X643587Y938979D01*
X638032Y938979D01*
X636921Y939646D01*
X636365Y940979D01*
X636365Y942312D01*
X636921Y943646D01*
X638032Y944312D01*
G54D18*
X188455Y943379D02*
X199122Y943379D01*
G54D18*
X193789Y947824D02*
X193789Y938935D01*
G54D18*
X118561Y943118D02*
X129227Y943118D01*
G54D18*
X148599Y936649D02*
X137932Y936649D01*
X137932Y937760D01*
X139265Y939982D01*
X147265Y946649D01*
X148599Y948871D01*
X148599Y951093D01*
X147265Y953316D01*
X144599Y954427D01*
X141932Y954427D01*
X139265Y953316D01*
X137932Y951093D01*
G54D18*
X162821Y936649D02*
X162821Y954427D01*
X154821Y943316D01*
X154821Y941093D01*
X165488Y941093D01*
G54D18*
X171710Y954427D02*
X178377Y936649D01*
X185043Y954427D01*
G54D11*
X674058Y634185D02*
X674725Y635296D01*
X676058Y635852D01*
X677391Y635852D01*
X678725Y635296D01*
X679391Y634185D01*
X679391Y633074D01*
X678725Y631963D01*
X677391Y631407D01*
X678725Y630852D01*
X679391Y629741D01*
X679391Y628630D01*
X678725Y627519D01*
X677391Y626963D01*
X676058Y626963D01*
X674725Y627519D01*
X674058Y628630D01*
G54D11*
X682502Y634185D02*
X683169Y635296D01*
X684502Y635852D01*
X685835Y635852D01*
X687169Y635296D01*
X687835Y634185D01*
X687835Y633074D01*
X687169Y631963D01*
X685835Y631407D01*
X687169Y630852D01*
X687835Y629741D01*
X687835Y628630D01*
X687169Y627519D01*
X685835Y626963D01*
X684502Y626963D01*
X683169Y627519D01*
X682502Y628630D01*
G54D11*
X696279Y634185D02*
X696279Y628630D01*
X695613Y627519D01*
X694279Y626963D01*
X692946Y626963D01*
X691613Y627519D01*
X690946Y628630D01*
X690946Y634185D01*
X691613Y635296D01*
X692946Y635852D01*
X694279Y635852D01*
X695613Y635296D01*
X696279Y634185D01*
G54D11*
X675010Y923981D02*
X678344Y932870D01*
X681677Y923981D01*
G54D11*
X676344Y927314D02*
X680344Y927314D01*
G54D11*
X690122Y931203D02*
X690122Y925647D01*
X689455Y924536D01*
X688122Y923981D01*
X686788Y923981D01*
X685455Y924536D01*
X684788Y925647D01*
X684788Y931203D01*
X685455Y932314D01*
X686788Y932870D01*
X688122Y932870D01*
X689455Y932314D01*
X690122Y931203D01*
G54D11*
X693232Y931203D02*
X693899Y932314D01*
X695232Y932870D01*
X696566Y932870D01*
X697899Y932314D01*
X698566Y931203D01*
X698566Y930092D01*
X697899Y928981D01*
X696566Y928425D01*
X697899Y927870D01*
X698566Y926759D01*
X698566Y925647D01*
X697899Y924536D01*
X696566Y923981D01*
X695232Y923981D01*
X693899Y924536D01*
X693232Y925647D01*
G54D11*
X705676Y923981D02*
X705676Y932870D01*
X701676Y927314D01*
X701676Y926203D01*
X707010Y926203D01*
G54D11*
X715454Y931203D02*
X715454Y925647D01*
X714787Y924536D01*
X713454Y923981D01*
X712120Y923981D01*
X710787Y924536D01*
X710120Y925647D01*
X710120Y931203D01*
X710787Y932314D01*
X712120Y932870D01*
X713454Y932870D01*
X714787Y932314D01*
X715454Y931203D01*
G54D11*
X723898Y931203D02*
X723898Y925647D01*
X723231Y924536D01*
X721898Y923981D01*
X720564Y923981D01*
X719231Y924536D01*
X718564Y925647D01*
X718564Y931203D01*
X719231Y932314D01*
X720564Y932870D01*
X721898Y932870D01*
X723231Y932314D01*
X723898Y931203D01*
G54D11*
X727008Y923981D02*
X730342Y932870D01*
X733675Y923981D01*
G54D11*
X728342Y927314D02*
X732342Y927314D01*
G54D10*
X716915Y771047D02*
X716989Y728460D01*
X697543Y728482D01*
X697542Y771049D01*
X716932Y771035D01*
G54D10*
X707345Y758766D02*
X707345Y750766D01*
X712345Y750766D01*
X702345Y750766D01*
G54D10*
X712234Y748045D02*
X702234Y748045D01*
G54D10*
X707345Y747878D02*
X707345Y740766D01*
G54D11*
X704538Y779558D02*
X710093Y779558D01*
X711204Y778892D01*
X711760Y777558D01*
X711760Y776225D01*
X711204Y774892D01*
X710093Y774225D01*
X704538Y774225D01*
X703427Y774892D01*
X702871Y776225D01*
X702871Y777558D01*
X703427Y778892D01*
X704538Y779558D01*
G54D11*
X711760Y783202D02*
X711760Y782669D01*
X711316Y782669D01*
X711316Y783202D01*
X711760Y783202D01*
X711760Y782669D01*
G54D11*
X711760Y790313D02*
X702871Y790313D01*
X708427Y786313D01*
X709538Y786313D01*
X709538Y791646D01*
G54D11*
X702871Y794757D02*
X702871Y800090D01*
X703982Y799424D01*
X705649Y798090D01*
X707871Y796757D01*
X709538Y796090D01*
X711760Y796090D01*
G54D18*
X129977Y550213D02*
X112199Y550213D01*
X112199Y540880D01*
G54D18*
X112199Y601418D02*
X129977Y601418D01*
X112199Y590751D01*
X129977Y590751D01*
G54D10*
G75*
G01X135047Y493753D02*
G03X135047Y493753I-15000J0D01*
G01*
G54D10*
X130048Y493753D02*
X120048Y493753D01*
G54D10*
X120048Y503753D02*
X120048Y483753D01*
G54D10*
X115048Y498753D02*
X115048Y488753D01*
G54D10*
X110048Y496253D02*
X110048Y491253D01*
G54D19*
X441729Y527126D02*
X394860Y446115D01*
X488427Y446115D01*
X488453Y446141D01*
X441726Y527074D01*
G36*
X441162Y454009D02*
X438492Y462492D01*
X440686Y462492D01*
X445198Y477832D01*
X432986Y472235D01*
X440650Y499529D01*
X446619Y499538D01*
X437848Y479618D01*
X450382Y485008D01*
X444007Y462161D01*
X446407Y462179D01*
X441162Y454009D01*
G37*
G54D16*
X441162Y454009D02*
X438492Y462492D01*
X440686Y462492D01*
X445198Y477832D01*
X432986Y472235D01*
X440650Y499529D01*
X446619Y499538D01*
X437848Y479618D01*
X450382Y485008D01*
X444007Y462161D01*
X446407Y462179D01*
X441162Y454009D01*
G54D10*
X247600Y762000D02*
X241300Y755700D01*
X241300Y742900D01*
X247600Y736600D01*
X260400Y736600D01*
X266700Y742900D01*
X266700Y755700D01*
X260400Y762000D01*
X247600Y762000D01*
G54D10*
X247600Y736600D02*
X241300Y730300D01*
X241300Y717500D01*
X247600Y711200D01*
X260400Y711200D01*
X266700Y717500D01*
X266700Y730300D01*
X260400Y736600D01*
X247600Y736600D01*
G54D10*
X247600Y711200D02*
X241300Y704900D01*
X241300Y692100D01*
X247600Y685800D01*
X260400Y685800D01*
X266700Y692100D01*
X266700Y704900D01*
X260400Y711200D01*
X247600Y711200D01*
G54D11*
X222556Y719460D02*
X222556Y728349D01*
G54D11*
X219889Y728349D02*
X225222Y728349D01*
G54D11*
X228333Y728349D02*
X235000Y719460D01*
G54D11*
X228333Y719460D02*
X235000Y728349D01*
G54D11*
X222528Y698402D02*
X224528Y697291D01*
X225194Y696179D01*
X225194Y693957D01*
G54D11*
X219861Y693957D02*
X219861Y702846D01*
X223195Y702846D01*
X224528Y702291D01*
X225195Y701179D01*
X225194Y700068D01*
X224528Y698957D01*
X223195Y698402D01*
X219861Y698402D01*
G54D11*
X228305Y702846D02*
X234972Y693957D01*
G54D11*
X228305Y693957D02*
X234972Y702846D01*
G54D11*
X215273Y749156D02*
X217940Y749156D01*
X217939Y746379D01*
X217273Y745267D01*
X215940Y744712D01*
X214606Y744712D01*
X213273Y745267D01*
X212606Y746379D01*
X212606Y751934D01*
X213273Y753045D01*
X214606Y753601D01*
X215940Y753601D01*
X217273Y753045D01*
X217939Y751934D01*
G54D11*
X221050Y744712D02*
X221050Y753601D01*
X226384Y744712D01*
X226383Y753601D01*
G54D11*
X229494Y744712D02*
X229494Y753601D01*
X232828Y753601D01*
X234161Y753045D01*
X234828Y751934D01*
X234828Y746379D01*
X234161Y745267D01*
X232827Y744712D01*
X229494Y744712D01*
G54D18*
X907456Y781272D02*
X909678Y785272D01*
X911901Y786605D01*
X916345Y786605D01*
G54D18*
X916345Y775938D02*
X898567Y775938D01*
X898567Y782605D01*
X899678Y785272D01*
X901901Y786605D01*
X904123Y786605D01*
X906345Y785272D01*
X907456Y782605D01*
X907456Y775938D01*
G54D18*
X915234Y800827D02*
X916345Y798694D01*
X916345Y796027D01*
X915234Y793361D01*
X913012Y792827D01*
X909234Y792827D01*
X907012Y794161D01*
X906345Y796827D01*
X907012Y799494D01*
X908567Y800827D01*
X910790Y800827D01*
X910790Y792827D01*
G54D18*
X906345Y807049D02*
X916345Y812383D01*
X906345Y817716D01*
G54D18*
X916345Y825005D02*
X916345Y823938D01*
X915456Y823938D01*
X915456Y825005D01*
X916345Y825005D01*
X916345Y823938D01*
G54D18*
X916345Y845716D02*
X898567Y845716D01*
X909678Y837716D01*
X911901Y837716D01*
X911901Y848383D01*
G54D18*
X916345Y855672D02*
X916345Y854605D01*
X915456Y854605D01*
X915456Y855672D01*
X916345Y855672D01*
X916345Y854605D01*
G54D18*
X898567Y872561D02*
X898567Y861894D01*
X906345Y861894D01*
X906345Y863228D01*
X905234Y865894D01*
X905234Y868561D01*
X906345Y871228D01*
X908567Y872561D01*
X913012Y872561D01*
X915234Y871228D01*
X916345Y868561D01*
X916345Y865894D01*
X915234Y863228D01*
X913012Y861894D01*
G54D10*
X324875Y630168D02*
X367461Y630242D01*
X367439Y610795D01*
X324873Y610795D01*
X324887Y630185D01*
G54D10*
X342331Y620520D02*
X351524Y625323D01*
X351524Y615611D01*
X342343Y620516D01*
G54D10*
X342182Y615661D02*
X342182Y625315D01*
G54D10*
X768217Y764296D02*
X768291Y721710D01*
X748845Y721732D01*
X748844Y764298D01*
X768235Y764284D01*
G54D10*
X758569Y746840D02*
X763372Y737647D01*
X753661Y737647D01*
X758566Y746828D01*
G54D10*
X753711Y746989D02*
X763365Y746989D01*
G54D10*
X538000Y932500D02*
X538000Y951500D01*
X576000Y951500D01*
X576000Y932500D01*
X538000Y932500D01*
G54D10*
X537900Y942000D02*
X521227Y942000D01*
G54D10*
X592569Y942000D02*
X576100Y942000D01*
G54D11*
X550753Y942741D02*
X554087Y946074D01*
X554087Y937186D01*
G54D11*
X562531Y944408D02*
X562531Y938852D01*
X561864Y937741D01*
X560531Y937186D01*
X559197Y937186D01*
X557864Y937741D01*
X557197Y938852D01*
X557197Y944408D01*
X557864Y945519D01*
X559197Y946074D01*
X560531Y946074D01*
X561864Y945519D01*
X562531Y944408D01*
G54D11*
X665098Y924091D02*
X661765Y927424D01*
X670654Y927424D01*
G54D11*
X663432Y935868D02*
X668987Y935868D01*
X670098Y935202D01*
X670654Y933868D01*
X670654Y932535D01*
X670098Y931202D01*
X668987Y930535D01*
X663432Y930535D01*
X662321Y931202D01*
X661765Y932535D01*
X661765Y933868D01*
X662321Y935202D01*
X663432Y935868D01*
G54D11*
X663432Y944312D02*
X668987Y944312D01*
X670098Y943646D01*
X670654Y942312D01*
X670654Y940979D01*
X670098Y939646D01*
X668987Y938979D01*
X663432Y938979D01*
X662321Y939646D01*
X661765Y940979D01*
X661765Y942312D01*
X662321Y943646D01*
X663432Y944312D01*
G54D10*
X675423Y854561D02*
X632836Y854487D01*
X632858Y873933D01*
X675424Y873933D01*
X675410Y854543D01*
G54D10*
X663142Y864131D02*
X655142Y864131D01*
X655142Y859131D01*
X655142Y869131D01*
G54D10*
X652420Y859242D02*
X652420Y869242D01*
G54D10*
X652254Y864130D02*
X645142Y864131D01*
G54D10*
X788117Y889000D02*
X782598Y888999D01*
G54D10*
X797617Y889000D02*
X803088Y888999D01*
G54D10*
X791417Y876300D02*
X791417Y901700D01*
X797717Y901700D01*
X797717Y876300D01*
X791417Y876300D01*
G54D10*
X818317Y868300D02*
X818317Y862000D01*
G54D10*
X815117Y865100D02*
X821517Y865100D01*
G54D10*
X788217Y901700D02*
X788217Y876300D01*
G54D10*
G75*
G01X857700Y889000D02*
G03X857700Y889000I-65000J0D01*
G01*
G54D11*
X764322Y691186D02*
X755433Y691186D01*
X760989Y687186D01*
X762100Y687186D01*
X762100Y692519D01*
G54D11*
X758766Y695630D02*
X755433Y698963D01*
X764322Y698963D01*
G54D11*
X764322Y706074D02*
X755433Y706074D01*
X760989Y702074D01*
X762100Y702074D01*
X762100Y707407D01*
G54D11*
X759878Y713851D02*
X759878Y712518D01*
X759322Y711185D01*
X758211Y710518D01*
X757100Y710518D01*
X755989Y711185D01*
X755433Y712518D01*
X755433Y713851D01*
X755989Y715185D01*
X757100Y715851D01*
X758211Y715851D01*
X759322Y715185D01*
X759878Y713851D01*
X760433Y715185D01*
X761544Y715851D01*
X762655Y715851D01*
X763766Y715185D01*
X764322Y713851D01*
X764322Y712518D01*
X763766Y711185D01*
X762655Y710518D01*
X761544Y710518D01*
X760433Y711185D01*
X759878Y712518D01*
G54D11*
X294452Y617085D02*
X294452Y625974D01*
X290452Y620418D01*
X290452Y619307D01*
X295785Y619307D01*
G54D11*
X298896Y622641D02*
X302229Y625974D01*
X302229Y617085D01*
G54D11*
X309340Y617085D02*
X309340Y625974D01*
X305340Y620418D01*
X305340Y619307D01*
X310673Y619307D01*
G54D11*
X317117Y621529D02*
X315784Y621529D01*
X314451Y622085D01*
X313784Y623196D01*
X313784Y624307D01*
X314451Y625418D01*
X315784Y625974D01*
X317117Y625974D01*
X318451Y625418D01*
X319117Y624307D01*
X319117Y623196D01*
X318451Y622085D01*
X317117Y621529D01*
X318451Y620974D01*
X319117Y619863D01*
X319117Y618752D01*
X318451Y617641D01*
X317117Y617085D01*
X315784Y617085D01*
X314451Y617641D01*
X313784Y618752D01*
X313784Y619863D01*
X314451Y620974D01*
X315784Y621529D01*
M02*
