%FSLAX34Y34*%
%MOMM*%
%LNSOLDERMASK_BOTTOM*%
G71*
G01*
%ADD10C, 2.60*%
%ADD11C, 3.30*%
%ADD12C, 2.90*%
%ADD13C, 2.60*%
%ADD14C, 2.60*%
%ADD15C, 3.10*%
%ADD16C, 2.40*%
%ADD17C, 6.10*%
%ADD18C, 2.50*%
%ADD19C, 2.60*%
%LPD*%
X692630Y825547D02*
G54D10*
D03*
X641830Y825547D02*
G54D10*
D03*
X616429Y825545D02*
G54D10*
D03*
X591030Y825547D02*
G54D10*
D03*
X565630Y825550D02*
G54D10*
D03*
X514829Y825545D02*
G54D10*
D03*
X489430Y825547D02*
G54D10*
D03*
X464030Y825547D02*
G54D10*
D03*
X692630Y673147D02*
G54D10*
D03*
X667230Y673147D02*
G54D10*
D03*
X641830Y673147D02*
G54D10*
D03*
X565630Y673147D02*
G54D10*
D03*
X540230Y673147D02*
G54D10*
D03*
X514830Y673147D02*
G54D10*
D03*
X489430Y673147D02*
G54D10*
D03*
X464030Y673147D02*
G54D10*
D03*
X438630Y825547D02*
G54D10*
D03*
X413230Y825547D02*
G54D10*
D03*
X387830Y825547D02*
G54D10*
D03*
X362430Y825547D02*
G54D10*
D03*
X337030Y825547D02*
G54D10*
D03*
X438630Y673147D02*
G54D10*
D03*
X413230Y673147D02*
G54D10*
D03*
X387830Y673147D02*
G54D10*
D03*
X362430Y673147D02*
G54D10*
D03*
X337030Y673147D02*
G54D10*
D03*
X83900Y800100D02*
G54D10*
D03*
X83900Y774700D02*
G54D10*
D03*
X83900Y749300D02*
G54D10*
D03*
X83900Y723900D02*
G54D10*
D03*
X83900Y698500D02*
G54D10*
D03*
X476800Y863600D02*
G54D10*
D03*
X502200Y863600D02*
G54D10*
D03*
X527600Y863600D02*
G54D10*
D03*
X553000Y863600D02*
G54D10*
D03*
X819674Y707852D02*
G54D11*
D03*
X787244Y723452D02*
G54D11*
D03*
X852099Y723453D02*
G54D11*
D03*
X779204Y758552D02*
G54D11*
D03*
X860144Y758539D02*
G54D11*
D03*
X837774Y786702D02*
G54D11*
D03*
X258858Y594858D02*
G54D12*
D03*
X258858Y494858D02*
G54D12*
D03*
X360458Y494858D02*
G54D12*
D03*
X360458Y594858D02*
G54D12*
D03*
X385858Y544858D02*
G54D12*
D03*
X660509Y599915D02*
G54D13*
D03*
X635110Y599910D02*
G54D13*
D03*
X609709Y599915D02*
G54D13*
D03*
X660509Y523715D02*
G54D13*
D03*
X635109Y523715D02*
G54D13*
D03*
X609709Y523715D02*
G54D13*
D03*
X496147Y555872D02*
G54D14*
D03*
X496118Y530518D02*
G54D14*
D03*
X496147Y505072D02*
G54D14*
D03*
X178139Y594858D02*
G54D15*
D03*
X178139Y544058D02*
G54D15*
D03*
X178139Y493258D02*
G54D15*
D03*
X794293Y584249D02*
G54D15*
D03*
X845092Y584250D02*
G54D15*
D03*
X235486Y888974D02*
G54D16*
D03*
X260886Y888974D02*
G54D16*
D03*
X133890Y889050D02*
G54D15*
D03*
X184692Y889050D02*
G54D15*
D03*
X45000Y955000D02*
G54D17*
D03*
X910000Y955000D02*
G54D17*
D03*
X910000Y445000D02*
G54D17*
D03*
X45000Y445000D02*
G54D17*
D03*
X295000Y698800D02*
G54D18*
D03*
X295000Y724200D02*
G54D18*
D03*
X295000Y749600D02*
G54D18*
D03*
X295000Y775000D02*
G54D18*
D03*
X254000Y749300D02*
G54D13*
D03*
X254000Y723900D02*
G54D13*
D03*
X254000Y698500D02*
G54D13*
D03*
X506200Y942000D02*
G54D19*
D03*
X607800Y942000D02*
G54D19*
D03*
X767517Y889000D02*
G54D19*
D03*
X818317Y889000D02*
G54D19*
D03*
M02*
