%FSLAX34Y34*%
%MOMM*%
%LNSILK_BOTTOM*%
G71*
G01*
%ADD10C, 0.20*%
%ADD11C, 0.16*%
%ADD12C, 0.32*%
%ADD13C, 0.10*%
%ADD14C, 0.60*%
%LPD*%
G54D10*
G75*
G01X267920Y730288D02*
G03X247537Y683411I-107820J19012D01*
G01*
G54D10*
X90300Y812800D02*
X96600Y806500D01*
X96600Y793700D01*
X90300Y787400D01*
X77500Y787400D01*
X71200Y793700D01*
X71200Y806500D01*
X77500Y812800D01*
X90300Y812800D01*
G54D10*
X90300Y787400D02*
X96600Y781100D01*
X96600Y768300D01*
X90300Y762000D01*
X77500Y762000D01*
X71200Y768300D01*
X71200Y781100D01*
X77500Y787400D01*
X90300Y787400D01*
G54D10*
X90300Y762000D02*
X96600Y755700D01*
X96600Y742900D01*
X90300Y736600D01*
X77500Y736600D01*
X71200Y742900D01*
X71200Y755700D01*
X77500Y762000D01*
X90300Y762000D01*
G54D10*
X90300Y736600D02*
X96600Y730300D01*
X96600Y717500D01*
X90300Y711200D01*
X77500Y711200D01*
X71200Y717500D01*
X71200Y730300D01*
X77500Y736600D01*
X90300Y736600D01*
G54D10*
X90300Y711200D02*
X96600Y704900D01*
X96600Y692100D01*
X90300Y685800D01*
X77500Y685800D01*
X71200Y692100D01*
X71200Y704900D01*
X77500Y711200D01*
X90300Y711200D01*
G54D11*
X112892Y804203D02*
X118226Y804203D01*
X118226Y800314D01*
X117559Y800314D01*
X116226Y800870D01*
X114892Y800870D01*
X113559Y800314D01*
X112892Y799203D01*
X112892Y796981D01*
X113559Y795870D01*
X114892Y795314D01*
X116226Y795314D01*
X117559Y795870D01*
X118226Y796981D01*
G54D11*
X109782Y804203D02*
X106448Y795314D01*
X103115Y804203D01*
G54D11*
X126480Y769717D02*
X126480Y778606D01*
G54D11*
X126480Y772495D02*
X121147Y778606D01*
G54D11*
X124480Y774161D02*
X121147Y769717D01*
G54D11*
X113370Y769717D02*
X118036Y769717D01*
X118036Y778606D01*
X113370Y778606D01*
G54D11*
X118036Y774161D02*
X113370Y774161D01*
G54D11*
X110258Y778606D02*
X106925Y774161D01*
X106925Y769717D01*
G54D11*
X106925Y774161D02*
X103592Y778606D01*
G54D11*
X117595Y746301D02*
X116929Y745190D01*
X115595Y744634D01*
X114262Y744634D01*
X112929Y745190D01*
X112262Y746301D01*
X112262Y747412D01*
X112929Y748523D01*
X114262Y749078D01*
X115595Y749078D01*
X116929Y749634D01*
X117595Y750745D01*
X117595Y751856D01*
X116929Y752967D01*
X115595Y753523D01*
X114262Y753523D01*
X112929Y752967D01*
X112262Y751856D01*
G54D11*
X103818Y744634D02*
X109151Y744634D01*
X109151Y745190D01*
X108485Y746301D01*
X104485Y749634D01*
X103818Y750745D01*
X103818Y751856D01*
X104485Y752967D01*
X105818Y753523D01*
X107151Y753523D01*
X108485Y752967D01*
X109151Y751856D01*
G54D11*
X117493Y721614D02*
X116827Y720503D01*
X115493Y719948D01*
X114160Y719948D01*
X112827Y720503D01*
X112160Y721614D01*
X112160Y722725D01*
X112827Y723837D01*
X114160Y724392D01*
X115493Y724392D01*
X116827Y724948D01*
X117493Y726059D01*
X117493Y727170D01*
X116827Y728281D01*
X115493Y728837D01*
X114160Y728837D01*
X112827Y728281D01*
X112160Y727170D01*
G54D11*
X109049Y725503D02*
X105716Y728837D01*
X105716Y719948D01*
G54D11*
X122626Y698451D02*
X119960Y698451D01*
X119960Y695673D01*
X120626Y694562D01*
X121960Y694006D01*
X123293Y694006D01*
X124626Y694562D01*
X125293Y695673D01*
X125293Y701228D01*
X124626Y702340D01*
X123293Y702895D01*
X121960Y702895D01*
X120626Y702340D01*
X119960Y701228D01*
G54D11*
X116849Y694006D02*
X116849Y702895D01*
X111516Y694006D01*
X111516Y702895D01*
G54D11*
X108405Y694006D02*
X108405Y702895D01*
X105072Y702895D01*
X103738Y702340D01*
X103072Y701228D01*
X103072Y695673D01*
X103738Y694562D01*
X105072Y694006D01*
X108405Y694006D01*
G54D10*
X464100Y870000D02*
X470400Y876300D01*
X483200Y876300D01*
X489500Y870000D01*
X489500Y857200D01*
X483200Y850900D01*
X470400Y850900D01*
X464100Y857200D01*
X464100Y870000D01*
G54D10*
X489500Y870000D02*
X495800Y876300D01*
X508600Y876300D01*
X514900Y870000D01*
X514900Y857200D01*
X508600Y850900D01*
X495800Y850900D01*
X489500Y857200D01*
X489500Y870000D01*
G54D10*
X514900Y870000D02*
X521200Y876300D01*
X534000Y876300D01*
X540300Y870000D01*
X540300Y857200D01*
X534000Y850900D01*
X521200Y850900D01*
X514900Y857200D01*
X514900Y870000D01*
G54D10*
X540300Y870000D02*
X546600Y876300D01*
X559400Y876300D01*
X565700Y870000D01*
X565700Y857200D01*
X559400Y850900D01*
X546600Y850900D01*
X540300Y857200D01*
X540300Y870000D01*
G54D11*
X562408Y841675D02*
X559742Y841675D01*
X559742Y838897D01*
X560408Y837786D01*
X561742Y837230D01*
X563075Y837230D01*
X564408Y837786D01*
X565075Y838897D01*
X565075Y844453D01*
X564408Y845564D01*
X563075Y846119D01*
X561742Y846119D01*
X560408Y845564D01*
X559742Y844453D01*
G54D11*
X556631Y837230D02*
X556631Y846119D01*
X551298Y837230D01*
X551298Y846119D01*
G54D11*
X548187Y837230D02*
X548187Y846119D01*
X544854Y846119D01*
X543520Y845564D01*
X542854Y844453D01*
X542854Y838897D01*
X543520Y837786D01*
X544854Y837230D01*
X548187Y837230D01*
G54D11*
X529637Y845858D02*
X534970Y845858D01*
X534970Y841970D01*
X534303Y841970D01*
X532970Y842525D01*
X531637Y842525D01*
X530303Y841970D01*
X529637Y840858D01*
X529637Y838636D01*
X530303Y837525D01*
X531637Y836970D01*
X532970Y836970D01*
X534303Y837525D01*
X534970Y838636D01*
G54D11*
X526526Y845858D02*
X523193Y836970D01*
X519859Y845858D01*
G54D11*
X513243Y838897D02*
X512576Y837786D01*
X511243Y837230D01*
X509910Y837230D01*
X508576Y837786D01*
X507910Y838897D01*
X507910Y840008D01*
X508576Y841119D01*
X509910Y841675D01*
X511243Y841675D01*
X512576Y842230D01*
X513243Y843342D01*
X513243Y844453D01*
X512576Y845564D01*
X511243Y846119D01*
X509910Y846119D01*
X508576Y845564D01*
X507910Y844453D01*
G54D11*
X499466Y838897D02*
X500132Y837786D01*
X501466Y837230D01*
X502799Y837230D01*
X504132Y837786D01*
X504799Y838897D01*
X504799Y844453D01*
X504132Y845564D01*
X502799Y846119D01*
X501466Y846119D01*
X500132Y845564D01*
X499466Y844453D01*
G54D11*
X496355Y846119D02*
X496355Y837230D01*
X491688Y837230D01*
G54D11*
X487588Y838897D02*
X486921Y837786D01*
X485588Y837230D01*
X484255Y837230D01*
X482921Y837786D01*
X482255Y838897D01*
X482255Y840008D01*
X482921Y841119D01*
X484255Y841675D01*
X485588Y841675D01*
X486921Y842230D01*
X487588Y843342D01*
X487588Y844453D01*
X486921Y845564D01*
X485588Y846119D01*
X484255Y846119D01*
X482921Y845564D01*
X482255Y844453D01*
G54D11*
X479144Y837230D02*
X479144Y846119D01*
X475811Y846119D01*
X474477Y845564D01*
X473811Y844453D01*
X473811Y838897D01*
X474477Y837786D01*
X475811Y837230D01*
X479144Y837230D01*
G54D11*
X470700Y837230D02*
X467367Y846119D01*
X464033Y837230D01*
G54D11*
X469367Y840564D02*
X465367Y840564D01*
G54D10*
G75*
G01X882174Y749352D02*
G03X882174Y749352I-62500J0D01*
G01*
G54D10*
G75*
G01X809702Y810883D02*
G03X829702Y810883I10000J0D01*
G01*
G54D10*
G75*
G01X899674Y749352D02*
G03X899674Y749352I-80000J0D01*
G01*
G54D10*
X390206Y653694D02*
X390206Y616394D01*
X450206Y616394D01*
X450206Y636394D01*
X580206Y636394D01*
X580206Y616394D01*
X640206Y616394D01*
X640206Y653694D01*
X390206Y653694D01*
G54D10*
X390206Y800994D02*
X640206Y800994D01*
X640206Y698501D01*
X640201Y698496D01*
G54D10*
X390206Y800994D02*
X390207Y698485D01*
G54D10*
X390206Y876394D02*
X390209Y846430D01*
G54D10*
X390206Y876394D02*
X640206Y876394D01*
X640206Y845631D01*
X640222Y845614D01*
G54D12*
X537782Y756398D02*
X537782Y745287D01*
X539116Y743065D01*
X541782Y741954D01*
X544449Y741954D01*
X547116Y743065D01*
X548449Y745287D01*
X548449Y756398D01*
X547116Y758621D01*
X544449Y759732D01*
X541782Y759732D01*
X539116Y758621D01*
X537782Y756398D01*
G54D12*
X531560Y759732D02*
X531560Y741954D01*
X522227Y741954D01*
G54D12*
X506672Y741954D02*
X516005Y741954D01*
X516005Y759732D01*
X506672Y759732D01*
G54D12*
X516005Y750843D02*
X506672Y750843D01*
G54D12*
X500450Y741954D02*
X500450Y759732D01*
X493783Y759732D01*
X491117Y758621D01*
X489783Y756398D01*
X489783Y745287D01*
X491117Y743065D01*
X493783Y741954D01*
X500450Y741954D01*
G36*
X157816Y475552D02*
X157816Y477052D01*
X157616Y477552D01*
X149016Y488552D01*
X147516Y491052D01*
X138916Y499852D01*
X140516Y501752D01*
X140216Y502952D01*
X138216Y504952D01*
X92716Y552052D01*
X100116Y562352D01*
X108216Y573452D01*
X113516Y579452D01*
X117216Y583452D01*
X120716Y586952D01*
X122616Y589252D01*
X124516Y592152D01*
X125516Y593752D01*
X127516Y593852D01*
X131416Y597752D01*
X133016Y598852D01*
X135516Y598652D01*
X137416Y597952D01*
X139216Y597152D01*
X141816Y595752D01*
X143716Y594152D01*
X145316Y592152D01*
X146216Y590652D01*
X146616Y589252D01*
X148616Y587452D01*
X150216Y586052D01*
X151316Y585252D01*
X153116Y585352D01*
X155416Y586852D01*
X157216Y588752D01*
X158816Y590652D01*
X160416Y592352D01*
X161716Y594052D01*
X161716Y595752D01*
X161616Y596452D01*
X159816Y598252D01*
X158016Y599952D01*
X156816Y600952D01*
X155416Y601352D01*
X152916Y601752D01*
X150316Y602952D01*
X147816Y604852D01*
X146016Y606552D01*
X144516Y608552D01*
X143416Y610752D01*
X142316Y612552D01*
X141016Y614352D01*
X138916Y615752D01*
X135716Y617652D01*
X132716Y619452D01*
X130016Y620752D01*
X126216Y622052D01*
X123816Y622752D01*
X121216Y623352D01*
X117016Y623552D01*
X114216Y623452D01*
X110816Y623152D01*
X107716Y622552D01*
X104516Y621852D01*
X101616Y621052D01*
X98416Y619952D01*
X95516Y618852D01*
X93116Y617752D01*
X90116Y616652D01*
X88716Y615352D01*
X88616Y613652D01*
X89116Y612552D01*
X90316Y612252D01*
X92216Y612652D01*
X93816Y613152D01*
X96416Y613752D01*
X99616Y614352D01*
X104016Y614952D01*
X107916Y615252D01*
X114116Y615152D01*
X115416Y614652D01*
X116516Y614152D01*
X117616Y613252D01*
X117616Y611752D01*
X117216Y610352D01*
X115316Y607852D01*
X113216Y604952D01*
X113116Y603152D01*
X112016Y602152D01*
X110016Y600252D01*
X108016Y597652D01*
X106316Y594852D01*
X103916Y590952D01*
X101616Y588052D01*
X95616Y580752D01*
X85116Y569452D01*
X84716Y571052D01*
X84216Y571752D01*
X83216Y571952D01*
X81516Y571952D01*
X80116Y572352D01*
X78616Y573552D01*
X57716Y594852D01*
X56316Y595352D01*
X54816Y595552D01*
X53716Y596552D01*
X51816Y598452D01*
X50316Y600052D01*
X31516Y618652D01*
X29816Y619052D01*
X28116Y618752D01*
X27116Y619152D01*
X25316Y621052D01*
X24116Y621552D01*
X23016Y621352D01*
X21716Y620852D01*
X20616Y619752D01*
X19616Y618552D01*
X19316Y617252D01*
X19516Y616052D01*
X20416Y614952D01*
X22116Y613452D01*
X21716Y612352D01*
X21916Y610852D01*
X22316Y608852D01*
X40416Y589252D01*
X42016Y587452D01*
X43216Y586152D01*
X43916Y584852D01*
X43916Y583052D01*
X44516Y581852D01*
X64216Y559552D01*
X64616Y557152D01*
X65216Y555452D01*
X66016Y554152D01*
X67316Y553652D01*
X68516Y553452D01*
X69216Y552452D01*
X69016Y551352D01*
X52216Y530952D01*
X38416Y512352D01*
X26716Y499652D01*
X17516Y489952D01*
X16316Y488352D01*
X15616Y486552D01*
X15416Y484852D01*
X16416Y482752D01*
X20516Y478752D01*
X25716Y475052D01*
X27916Y474152D01*
X29716Y474052D01*
X31416Y474952D01*
X33716Y476752D01*
X36116Y480152D01*
X42716Y490552D01*
X52216Y502352D01*
X66616Y518852D01*
X85816Y543052D01*
X130116Y496052D01*
X131516Y494952D01*
X132916Y494652D01*
X134516Y495552D01*
X144616Y485452D01*
X155016Y476552D01*
X156216Y475652D01*
X157816Y475552D01*
G37*
G54D13*
X157816Y475552D02*
X157816Y477052D01*
X157616Y477552D01*
X149016Y488552D01*
X147516Y491052D01*
X138916Y499852D01*
X140516Y501752D01*
X140216Y502952D01*
X138216Y504952D01*
X92716Y552052D01*
X100116Y562352D01*
X108216Y573452D01*
X113516Y579452D01*
X117216Y583452D01*
X120716Y586952D01*
X122616Y589252D01*
X124516Y592152D01*
X125516Y593752D01*
X127516Y593852D01*
X131416Y597752D01*
X133016Y598852D01*
X135516Y598652D01*
X137416Y597952D01*
X139216Y597152D01*
X141816Y595752D01*
X143716Y594152D01*
X145316Y592152D01*
X146216Y590652D01*
X146616Y589252D01*
X148616Y587452D01*
X150216Y586052D01*
X151316Y585252D01*
X153116Y585352D01*
X155416Y586852D01*
X157216Y588752D01*
X158816Y590652D01*
X160416Y592352D01*
X161716Y594052D01*
X161716Y595752D01*
X161616Y596452D01*
X159816Y598252D01*
X158016Y599952D01*
X156816Y600952D01*
X155416Y601352D01*
X152916Y601752D01*
X150316Y602952D01*
X147816Y604852D01*
X146016Y606552D01*
X144516Y608552D01*
X143416Y610752D01*
X142316Y612552D01*
X141016Y614352D01*
X138916Y615752D01*
X135716Y617652D01*
X132716Y619452D01*
X130016Y620752D01*
X126216Y622052D01*
X123816Y622752D01*
X121216Y623352D01*
X117016Y623552D01*
X114216Y623452D01*
X110816Y623152D01*
X107716Y622552D01*
X104516Y621852D01*
X101616Y621052D01*
X98416Y619952D01*
X95516Y618852D01*
X93116Y617752D01*
X90116Y616652D01*
X88716Y615352D01*
X88616Y613652D01*
X89116Y612552D01*
X90316Y612252D01*
X92216Y612652D01*
X93816Y613152D01*
X96416Y613752D01*
X99616Y614352D01*
X104016Y614952D01*
X107916Y615252D01*
X114116Y615152D01*
X115416Y614652D01*
X116516Y614152D01*
X117616Y613252D01*
X117616Y611752D01*
X117216Y610352D01*
X115316Y607852D01*
X113216Y604952D01*
X113116Y603152D01*
X112016Y602152D01*
X110016Y600252D01*
X108016Y597652D01*
X106316Y594852D01*
X103916Y590952D01*
X101616Y588052D01*
X95616Y580752D01*
X85116Y569452D01*
X84716Y571052D01*
X84216Y571752D01*
X83216Y571952D01*
X81516Y571952D01*
X80116Y572352D01*
X78616Y573552D01*
X57716Y594852D01*
X56316Y595352D01*
X54816Y595552D01*
X53716Y596552D01*
X51816Y598452D01*
X50316Y600052D01*
X31516Y618652D01*
X29816Y619052D01*
X28116Y618752D01*
X27116Y619152D01*
X25316Y621052D01*
X24116Y621552D01*
X23016Y621352D01*
X21716Y620852D01*
X20616Y619752D01*
X19616Y618552D01*
X19316Y617252D01*
X19516Y616052D01*
X20416Y614952D01*
X22116Y613452D01*
X21716Y612352D01*
X21916Y610852D01*
X22316Y608852D01*
X40416Y589252D01*
X42016Y587452D01*
X43216Y586152D01*
X43916Y584852D01*
X43916Y583052D01*
X44516Y581852D01*
X64216Y559552D01*
X64616Y557152D01*
X65216Y555452D01*
X66016Y554152D01*
X67316Y553652D01*
X68516Y553452D01*
X69216Y552452D01*
X69016Y551352D01*
X52216Y530952D01*
X38416Y512352D01*
X26716Y499652D01*
X17516Y489952D01*
X16316Y488352D01*
X15616Y486552D01*
X15416Y484852D01*
X16416Y482752D01*
X20516Y478752D01*
X25716Y475052D01*
X27916Y474152D01*
X29716Y474052D01*
X31416Y474952D01*
X33716Y476752D01*
X36116Y480152D01*
X42716Y490552D01*
X52216Y502352D01*
X66616Y518852D01*
X85816Y543052D01*
X130116Y496052D01*
X131516Y494952D01*
X132916Y494652D01*
X134516Y495552D01*
X144616Y485452D01*
X155016Y476552D01*
X156216Y475652D01*
X157816Y475552D01*
G54D10*
X307700Y698800D02*
X307700Y692400D01*
X301400Y686100D01*
X288600Y686100D01*
X282300Y692400D01*
X282300Y705200D01*
X288600Y711500D01*
X301400Y711500D01*
X307700Y705200D01*
X307700Y698800D01*
G54D10*
X307700Y724200D02*
X307700Y717800D01*
X301400Y711500D01*
X288600Y711500D01*
X282300Y717800D01*
X282300Y730600D01*
X288600Y736900D01*
X301400Y736900D01*
X307700Y730600D01*
X307700Y724200D01*
G54D10*
X307700Y749600D02*
X307700Y743200D01*
X301400Y736900D01*
X288600Y736900D01*
X282300Y743200D01*
X282300Y756000D01*
X288600Y762300D01*
X301400Y762300D01*
X307700Y756000D01*
X307700Y749600D01*
G54D10*
X307700Y775000D02*
X307700Y768600D01*
X301400Y762300D01*
X288600Y762300D01*
X282300Y768600D01*
X282300Y781400D01*
X288600Y787700D01*
X301400Y787700D01*
X307700Y781400D01*
X307700Y775000D01*
G54D10*
G75*
G01X320400Y825500D02*
G03X320400Y825500I-16600J0D01*
G01*
G54D10*
G75*
G01X320400Y647700D02*
G03X320400Y647700I-16600J0D01*
G01*
G54D10*
X277600Y851548D02*
X733552Y851548D01*
X733552Y621786D01*
X277600Y621786D01*
X277600Y851548D01*
G54D10*
X356886Y808861D02*
X661308Y808861D01*
X661307Y691939D01*
X356443Y692381D01*
X356886Y808861D01*
G54D11*
X327767Y770317D02*
X328433Y769206D01*
X329767Y768650D01*
X331100Y768650D01*
X332433Y769206D01*
X333100Y770317D01*
X333100Y775872D01*
X332433Y776983D01*
X331100Y777539D01*
X329767Y777539D01*
X328433Y776983D01*
X327767Y775872D01*
G54D11*
X324656Y777539D02*
X324656Y768650D01*
X319989Y768650D01*
G54D11*
X316878Y768650D02*
X316878Y777539D01*
G54D11*
X316878Y771428D02*
X311545Y777539D01*
G54D11*
X314878Y773094D02*
X311545Y768650D01*
G54D11*
X333100Y743250D02*
X333100Y752139D01*
X329767Y752139D01*
X328433Y751583D01*
X327767Y750472D01*
X327767Y744917D01*
X328433Y743806D01*
X329767Y743250D01*
X333100Y743250D01*
G54D11*
X324656Y743250D02*
X319323Y743250D01*
G54D11*
X321989Y743250D02*
X321989Y752139D01*
G54D11*
X324656Y752139D02*
X319323Y752139D01*
G54D11*
X310879Y750472D02*
X310879Y744917D01*
X311545Y743806D01*
X312879Y743250D01*
X314212Y743250D01*
X315545Y743806D01*
X316212Y744917D01*
X316212Y750472D01*
X315545Y751583D01*
X314212Y752139D01*
X312879Y752139D01*
X311545Y751583D01*
X310879Y750472D01*
G54D11*
X330433Y722294D02*
X327767Y722294D01*
X327767Y719517D01*
X328433Y718406D01*
X329767Y717850D01*
X331100Y717850D01*
X332433Y718406D01*
X333100Y719517D01*
X333100Y725072D01*
X332433Y726183D01*
X331100Y726739D01*
X329767Y726739D01*
X328433Y726183D01*
X327767Y725072D01*
G54D11*
X324656Y717850D02*
X324656Y726739D01*
X319323Y717850D01*
X319323Y726739D01*
G54D11*
X316212Y717850D02*
X316212Y726739D01*
X312879Y726739D01*
X311545Y726183D01*
X310879Y725072D01*
X310879Y719517D01*
X311545Y718406D01*
X312879Y717850D01*
X316212Y717850D01*
G54D11*
X321417Y701339D02*
X326750Y701339D01*
X326750Y697450D01*
X326083Y697450D01*
X324750Y698006D01*
X323417Y698006D01*
X322083Y697450D01*
X321417Y696339D01*
X321417Y694117D01*
X322083Y693006D01*
X323417Y692450D01*
X324750Y692450D01*
X326083Y693006D01*
X326750Y694117D01*
G54D11*
X318306Y701339D02*
X314973Y692450D01*
X311639Y701339D01*
G54D12*
X560339Y711194D02*
X560339Y728972D01*
G54D12*
X565672Y728972D02*
X555005Y728972D01*
G54D12*
X548783Y711194D02*
X548783Y728972D01*
X542116Y717861D01*
X535450Y728972D01*
X535450Y711194D01*
G54D12*
X529228Y722305D02*
X522561Y728972D01*
X522561Y711194D01*
G54D12*
X505672Y725638D02*
X507006Y727861D01*
X509672Y728972D01*
X512339Y728972D01*
X515006Y727861D01*
X516339Y725638D01*
X516339Y720083D01*
X516339Y718972D01*
X512339Y721194D01*
X509672Y721194D01*
X507006Y720083D01*
X505672Y717861D01*
X505672Y714527D01*
X507006Y712305D01*
X509672Y711194D01*
X512339Y711194D01*
X515006Y712305D01*
X516339Y714527D01*
X516339Y720083D01*
G54D12*
X499450Y725638D02*
X498117Y727861D01*
X495450Y728972D01*
X492783Y728972D01*
X490117Y727861D01*
X488783Y725638D01*
X488783Y723416D01*
X490117Y721194D01*
X492783Y720083D01*
X490117Y718972D01*
X488783Y716750D01*
X488783Y714527D01*
X490117Y712305D01*
X492783Y711194D01*
X495450Y711194D01*
X498117Y712305D01*
X499450Y714527D01*
G54D12*
X482561Y728972D02*
X471894Y728972D01*
X473228Y726750D01*
X475894Y723416D01*
X478561Y718972D01*
X479894Y715638D01*
X479894Y711194D01*
G54D14*
X441585Y527152D02*
X488453Y446141D01*
X394886Y446141D01*
X394860Y446167D01*
X441587Y527101D01*
G36*
X442152Y454035D02*
X444821Y462518D01*
X442627Y462518D01*
X438116Y477858D01*
X450327Y472261D01*
X442664Y499555D01*
X436694Y499565D01*
X445466Y479644D01*
X432931Y485034D01*
X439306Y462187D01*
X436906Y462205D01*
X442152Y454035D01*
G37*
G54D13*
X442152Y454035D02*
X444821Y462518D01*
X442627Y462518D01*
X438116Y477858D01*
X450327Y472261D01*
X442664Y499555D01*
X436694Y499565D01*
X445466Y479644D01*
X432931Y485034D01*
X439306Y462187D01*
X436906Y462205D01*
X442152Y454035D01*
M02*
